<svg xmlns="http://www.w3.org/2000/svg" viewBox="0 0 28.96 33.18"><defs><style>.cls-1{fill:#fffbf7;stroke:#fffbf7;stroke-miterlimit:10;stroke-width:0.92px;}</style></defs><title>hand_icon</title><g id="Layer_2" data-name="Layer 2"><g id="Layer_1-2" data-name="Layer 1"><path class="cls-1" d="M11,1.64a2.23,2.23,0,0,1,2.24,2.23v8.56l.25,0,.21,0,.18,0h0a2.24,2.24,0,0,1,4.42,0H19a2,2,0,0,1,3.91.18h0l.15,0,.21.07.27.09v-7a1.86,1.86,0,0,1,3.71,0V21.11A12.26,12.26,0,0,1,25,28.47a7,7,0,0,1-5.59,3.08H16.65c-3.12,0-6-2.45-7.22-6.23v0l0,0c-1.9-2.16-3.16-4.28-6.72-6a1.73,1.73,0,0,1-1-1.73,1.72,1.72,0,0,1,1.24-1.3,4.54,4.54,0,0,1,1.69-.29,5.9,5.9,0,0,1,3.64,1.18l.21.17.34.29V3.87A2.23,2.23,0,0,1,11,1.64ZM11,.46A3.41,3.41,0,0,0,7.59,3.87V15.39a7.81,7.81,0,0,0-3-.62,5.73,5.73,0,0,0-2.12.37,2.84,2.84,0,0,0-2,2.26,2.89,2.89,0,0,0,1.69,2.92,14.21,14.21,0,0,1,5.32,4.48c.29.35.58.7.89,1.07,1.46,4.16,4.69,6.85,8.27,6.85h2.79A8.17,8.17,0,0,0,26,29.18a13.48,13.48,0,0,0,2.53-8.07V16.49h0V5.7a3,3,0,0,0-6.06,0V10a3.16,3.16,0,0,0-3.67.54,4.22,4.22,0,0,0-.45-.47,3.44,3.44,0,0,0-2.22-.83,3.4,3.4,0,0,0-1.69.46V3.87A3.42,3.42,0,0,0,11,.46Z"/></g></g></svg>