<svg xmlns="http://www.w3.org/2000/svg" viewBox="0 0 57.65 57.1"><defs><style>.cls-1,.cls-2{fill:#d71920;}.cls-1{stroke:#d71920;stroke-miterlimit:10;stroke-width:1.06px;}</style></defs><title>item_icon</title><g id="Layer_2" data-name="Layer 2"><g id="Layer_1-2" data-name="Layer 1"><path class="cls-1" d="M51.56,27.85a22.4,22.4,0,1,1-22.4-22.4A22.4,22.4,0,0,1,51.56,27.85Z"/><path class="cls-2" d="M50.9,29.5Zm-1.59-17.1-.16-.2.16.2ZM37.47,49.11l-.29.11ZM47.25,16h0l-.07-.05ZM29.5,51l.1,0-.1,0ZM7.72,13.46Zm2.2-2.29h0l-.89,1ZM20.85,53.42h0ZM47.78,11.13h0l-.21-.24ZM50,17.64h0l0,0Zm-3.66-5.81-.08-.08.08.08ZM3.09,26.2c0,.08,0,.15,0,.21s0-.14,0-.21ZM33.55,4.85a4.72,4.72,0,0,1-.67,0A4.72,4.72,0,0,0,33.55,4.85ZM8.88,11.9c.3-.29.64-.62,1-1h0C9.53,11.28,9.18,11.62,8.88,11.9Zm1-1h0l.26-.26Zm.11-.38h0l-.37.38ZM17.81,7h0ZM41.57,8.06A.71.71,0,0,0,41.4,8h0A.71.71,0,0,1,41.57,8.06ZM26,6l-.12,0L26,6Zm-10.54,45,.13,0-.13,0ZM15.16,6.42l-.09.06h0Zm.47,3.41.09,0Zm-1.93-3Zm-.12.08ZM9.58,11c-.24.26-.47.53-.7.79h0C9.11,11.49,9.34,11.22,9.58,11Zm6,40,0,0,0,0ZM9.47,41.16v0h0ZM48.13,16.87l.12.21-.12-.21Zm-28.71-8ZM16.81,4.64l-.23.11ZM40,47.35ZM21.76,7.84c-.05,0-.12,0,0-.08C21.64,7.83,21.71,7.83,21.76,7.84Zm-8.1,4.7h0l0,0ZM34.87,2.38l.31.11ZM24.2,2.1h0ZM21,8.33ZM18,2.25l.13,0h0ZM13.69,12.52Zm6.15-11a1.94,1.94,0,0,0,.48-.19A1.94,1.94,0,0,1,19.84,1.49ZM24.31.36l.22-.06ZM14.19,12.48l.15-.14-.15.14Zm.32-8.65h0ZM9.84,7.2l-.22.19.22-.19ZM14.46,6A2.39,2.39,0,0,1,15,5.64h0a2.39,2.39,0,0,0-.51.31ZM35.66,54l-.06,0h0ZM16.55,5.11h0ZM56,19.5Zm-.76-2ZM19.31,54h0ZM7,34.2H7a.34.34,0,0,0,0,.07A.34.34,0,0,1,7,34.2ZM8.16,11l-.33.4h0ZM47.84,46,48,46ZM1.89,32.49h0l0,.07ZM13,6.57l-.24.17L13,6.57ZM8.45,10.66l-.22.25.22-.25ZM35.93.9a.74.74,0,0,0,.18.12h0A1,1,0,0,1,35.93.9Zm3,.9Zm3,9h0ZM55.83,36.88l.07-.24-.07.24ZM18.11,4l.14-.14L18.11,4ZM7.51,34.86a.35.35,0,0,0,0-.09.28.28,0,0,1,0,.09Zm1.8,4.25s0,0,0,0,0,0,0,0Zm41.26-6.6v0h0ZM7.68,21.86h0l0,.1Zm-.83,3.59c0-.14,0-.27.06-.41,0,.14,0,.27-.06.41Zm7.93-20-.12.08h0Zm-2.56-.21-.16.13Zm0,0h0Zm.33,1.7h0a.17.17,0,0,1-.12,0,.17.17,0,0,1,.19-.11.15.15,0,0,1-.05.08h0l.23-.17c.07-.14.15-.27,0-.42-.19,0-.17.27-.38.29-.15-.31.43-.71,0-1a.56.56,0,0,1,.26-.35c.23-.05.05.26.24.23s.2-.09.26-.17c.08-.25-.27-.27-.06-.46.09.3.22,0,.5,0,0-.22.11-.28.06-.51a.55.55,0,0,0,.37-.27l-.76.52a.38.38,0,0,1-.05.21.14.14,0,0,1-.15,0l.11-.08L13,4.87c-.57.35.23-.27-.21,0a4.13,4.13,0,0,0-.51.33,1.4,1.4,0,0,1-.12.3.14.14,0,0,1-.07-.16c-.36.29-.64.59-.94.87l-.47.38-.07,0,.09-.21a6.55,6.55,0,0,1-.83.77.38.38,0,0,1-.22.2h0A11.08,11.08,0,0,0,8.3,8.63a.47.47,0,0,1,.15-.05l-.07.07c-.1,0-.25.2-.44.43a.83.83,0,0,1,.36.09c.09,0,.16-.23.19-.06s-.34.34-.32.69a.27.27,0,0,0,.13-.29c.06,0,.19,0,.25,0s0-.09.06-.17.12,0,.13-.06,0-.29.07-.4S9,8.75,9,8.71s0-.24.19-.17c.16.23-.19.39-.13.69-.37,0-.31.29-.25.52.07.07.16,0,.06,0,.11-.19.2.29.07.34A.3.3,0,0,1,8.73,10c-.12-.1-.27.24-.44.41a.84.84,0,0,0,.16.23A27.23,27.23,0,0,1,12.56,6.91Zm-1.75-.14c-.2-.14.22-.23,0,0Zm-1.73,5-.2.1h0Zm4.43-5.07h0Zm.31-.24-.29.23Zm.77-2.3c0,.36.22.6,0,.92-.31-.08-.25-.5-.38-.75-.16,0-.2.2-.32.29.16.64-.62.72-.38,1.26-.05.18-.18.29-.2.5.07,0,.13,0,0,.11h0a0,0,0,0,1,0,0c-.05,0-.08.05-.11,0l-.2.11c0,.14-.08.25-.26.26a.44.44,0,0,1,0-.11,10.41,10.41,0,0,0-1,.75,14.29,14.29,0,0,0-1.62,1.53c.13-.17,0-.14.31-.41-.16.1-.58.58-.52.65-.4.47-.92,1-1.39,1.45h0a.46.46,0,0,1,.06.16h.12l.69-.78-.17.19c0-.13,0-.36.18-.33a.61.61,0,0,1,0,.11c.46-.5.92-1,1.36-1.43l-.33.44c.17-.2.34-.37.49-.51v0a.42.42,0,0,0,0,0h0a8.83,8.83,0,0,1,1-.8,6.36,6.36,0,0,0,1.34-1.2l0,.27.22-.14c0-.19.13-.28.19-.42a.18.18,0,0,1,.11.18c.21-.18.41-.37.63-.54a.51.51,0,0,1,0-.07,1.39,1.39,0,0,1-.33.21c-.21,0,.29-.31.42-.46L14.1,6a1.14,1.14,0,0,1-.62.25c.39-.26.78-.51,1.18-.75l.1-.17c.05,0,.08,0,.1.05l-.08,0,.34-.2.12-.05a1,1,0,0,0-.32.39.14.14,0,0,0,0,.07,2,2,0,0,1,.3-.11l-.11,0a.67.67,0,0,1,0-.17.31.31,0,0,0,.19-.18c.07.05,0,.11,0,.19h0l.15-.07c.05-.2.14-.33,0-.58a.57.57,0,0,0,.38-.8c.07-.24.38-.27.38-.57.26,0,.23-.28.31-.46s-.2.13-.19.23c-.14-.15-.27,0-.34,0l.07,0-.51.26A3.13,3.13,0,0,0,16.1,3a17.12,17.12,0,0,0-1.6.87c0,.09-.07.16-.1.25A.17.17,0,0,0,14.59,4.19Zm-.82,1.55c0-.11,0-.25.19-.23S13.94,5.75,13.77,5.74Zm1.89-1.66c0,.14-.09.22-.25.23V4A.38.38,0,0,0,15.66,4.08Zm-.57-.4a.36.36,0,0,0,.19.06c0,.28-.15.36-.31.46C14.78,4,15.09,3.84,15.09,3.68ZM12.78,6.83h0L13,6.68Zm.55-.31-.11.05h0l.11-.05ZM8.08,11.23l.12-.11h.09V11l.13-.12C8.31,11,8.19,11.13,8.08,11.23Zm.82.84c-.25.32-.62.68-1,1.12a2.07,2.07,0,0,1,.1.3l-.15.2.25-.34c.29-.39.6-.78.91-1.17l0,0A.3.3,0,0,1,8.91,12.08ZM5.13,15.64c-.14.6-.86,1.69-.42,1.37a23.64,23.64,0,0,1,2.57-4.27c.35-.48.73-.94,1.11-1.4l-.1,0-.12,0a21.74,21.74,0,0,0-1.6,2l0,0A6.93,6.93,0,0,1,6,14.5c0-.21.21-.51.1-.54-.14.31-.28.62-.41.93C5.54,15,5.07,16,5.13,15.64Zm.91.51c-.14.57-.83,1.62-.4,1.31L6,16.75l0,.11h0a.42.42,0,0,1,.1-.13,22.45,22.45,0,0,1,1.83-3,1,1,0,0,1-.11-.27h0a3.44,3.44,0,0,0-.28.42v0A6,6,0,0,1,6.9,15c0-.2.2-.49.09-.52-.14.29-.27.59-.39.89C6.44,15.52,6,16.52,6,16.15ZM29.17,54.46l.94-.1-.69.07Zm-24.32-10h0Zm9,8.56c-.48-.34-.46-.25-.19,0C13.68,53,13.85,53.07,13.86,53ZM3.93,43.09a.79.79,0,0,0-.14-.17A1.73,1.73,0,0,0,3.93,43.09ZM15.26,8.5c.05-.05.07-.09-.06,0C15.33,8.41,15.3,8.44,15.26,8.5Zm31,.51.64.51c-.3-.26-.19,0-.53-.35.12.14.61.53.68.47h0c0-.05.05-.12.12-.14-.24-.21-.49-.42-.74-.62Zm2.52,2.55-.08-.23a3,3,0,0,1,.67.77h.17c.1.1,0,.35.19.4a.14.14,0,0,1-.06.05c.2.3.42.63.68.94h0c.22.28.58.41.9,1-.19-.1-.37-.41-.45-.32l.65.76c0,.19.66,1.13.37.87.45.44.86,1.67.87,1.13C52.2,16,51.63,15,51,14c0,.05-.08,0-.06-.1-.28-.41-.56-.83-.87-1.24a22.11,22.11,0,0,0-2.8-3.09s-.14,0-.16.09l0,0A8.87,8.87,0,0,1,48.76,11.56ZM50.9,13.9h0L51,14Zm6.44,11a.63.63,0,0,0-.08-.26c0,.2.06.41.08.6ZM20.32,1.3h0Zm12-1h0Zm23.2,28.82,0-.17h0l0,.17ZM55.46,29c0,.23,0,.2.06.09h0A.09.09,0,0,0,55.46,29Zm0,0h0v0ZM28.94,57.08V57l.05.07h.08c.47,0,.94,0,1.41-.06l.07,0,.52-.08A28.45,28.45,0,0,0,55.61,37.6l.06-.1,0,0c.07-.2.12-.39.18-.59,0,0,0,0,0,0-.19-.07,0-.22.06-.29s0,0,0,0c.1-.32.19-.64.27-1v.07a2.17,2.17,0,0,0,.19-.83l0,0,0-.16,0,.14a.3.3,0,0,0,0-.21c.09-.38.17-.76.23-1.15V33.5c0-.19.07-.38.1-.58,0,.07,0,.15,0,.23,0-.22,0-.44,0-.66l0,.11c0-.37.1-.75.13-1.13,0-.1.1-.32.22-.78a8.81,8.81,0,0,0-.1-1.13c0-.31,0-.62,0-.92a28.31,28.31,0,0,0-2-10.52l-.36.1c0-.17.16-.35.2-.5A28.52,28.52,0,0,0,44.8,5.26s-.24-.22,0-.14c.21.24.87.72,1.57,1.28s1.35,1.09,1.85,1.49c-.2-.14-.14,0-.47-.3.12.15.65.56.72.51a10.08,10.08,0,0,1,1.87,2.08l-.08-.25a3.16,3.16,0,0,1,.53.57h0L51,10.4l.05.07a.32.32,0,0,1-.09.17c.34.47.69,1.06,1.16,1.64v0a5.06,5.06,0,0,1,1,1.09c-.2-.11-.4-.44-.47-.35.24.27.47.55.69.84,0,.14.45.79.48.94h.2l-.18-.31a.17.17,0,0,1-.07,0c0-.07-.11-.08-.12-.17a.2.2,0,0,1,.06-.1,28.6,28.6,0,0,0-1.87-2.84,23.18,23.18,0,0,0-1.71-2,.52.52,0,0,1-.19.05c0-.07,0-.14,0-.2a18.72,18.72,0,0,0-2.14-2l.5.32c-.76-.57-1.23-1-1.68-1.43a5,5,0,0,0-1.64-1l.28,0c-.69-.56-1.54-.69-2.21-1.33l0,.11c-.21-.12-.28-.2-.48-.32l.06.08-.42-.18h0c0,.1-.06.22-.22.2s-.07-.2-.07-.33h0c-.25-.13-.48-.26-.77-.44,0-.08.28.1.46.18a7.27,7.27,0,0,0-1.17-.49c-.32-.21,0-.08.1-.08-.67-.25-1.15-.49-1.59-.66a.47.47,0,0,0-.11.26l1,.3-.22-.09c.75,0,.46.26,1.52.62-.32,0-.75-.23-1-.25l0,0c-.57-.26-1.15-.5-1.75-.72l.36.11h0c-.05,0,0-.14,0-.21s-.2-.1-.29-.21a3.82,3.82,0,0,0-.94-.16c-.11,0,.32.21-.19.08l.26.11-1.21-.38c.49.09,1.16.2.56-.09h-.23a.14.14,0,0,1-.11,0l0,0A1.81,1.81,0,0,1,36.11,1V1a.28.28,0,0,0-.1.12h-.1l.24,0,0,0-.2-.06.09,0s-.07,0-.13,0c0,.15,0,.25-.19.23,0-.27.17-.32.24-.49a1.33,1.33,0,0,0-.47-.22C34.58.5,34,.67,33.29.48,33,.43,33,.36,33.13.33A3.79,3.79,0,0,0,32.6.28,1.66,1.66,0,0,1,32,.7c-.2,0-.25-.08-.38-.12s-.47-.05-.88,0c-.14,0-.44,0-.56-.17s.21-.22.31-.34c.2.06.5,0,.57.23a.62.62,0,0,0,.24-.17A3.75,3.75,0,0,0,30.12.05h-.28a.28.28,0,0,1,0,.07h-.16s0,0,0-.07A5.68,5.68,0,0,1,28,0a16.81,16.81,0,0,0-2.6.27c.47-.19-.86.09-.68-.08a.34.34,0,0,1-.2.12h0a.33.33,0,0,1-.07.22.18.18,0,0,1-.16-.16c-.27.06-.63.1-1,.15C22.67.61,22,.74,22,1a3.86,3.86,0,0,0-.66.12,4.39,4.39,0,0,1-.8.2s.22-.11.31-.14a1.94,1.94,0,0,0-.54.17,1.92,1.92,0,0,1,0,.37c-.13,0-.13.09-.19.12s-.17,0-.19,0S20,2,19.81,2a1.7,1.7,0,0,0,0-.47.8.8,0,0,1-.27,0l-.2.07a0,0,0,0,0,0,0,.54.54,0,0,1-.17,0c-.36.14-.1.12-.18.23l-.9.34a2.27,2.27,0,0,1-.27.21.44.44,0,0,1-.17-.13h.09c-.11,0-.22,0-.47,0,0,.1-.17.2-.38.31h0c0,.05.09.09.07.17a2.29,2.29,0,0,1-.26.63c.2.36-.22.82.13,1,0,0,0,.07,0,.1h0l.08,0s0,.05-.09.09v0a6.76,6.76,0,0,1,.75-.44c.35-.1,0,.08,0,.13L18,4.12a1.47,1.47,0,0,1,.1-.15c-.34.28-.44,0-1.22.53A6.33,6.33,0,0,1,17.64,4h0c.54-.24,1.09-.47,1.65-.67a11.5,11.5,0,0,0-1,.53h0l0,0a.24.24,0,0,1,0,.17,8.61,8.61,0,0,0,1.94-.89c.08-.08-.37,0,.1-.17L20.08,3c.37-.13.75-.24,1.13-.35-.43.18-1,.45-.39.37L21,2.92c.8-.33.63-.05,1.29-.18a10.42,10.42,0,0,1,1.92-.63h0a.37.37,0,0,0,0-.21c.15.05.1.11.05.19h0c.26,0,.23,0,.15.1.72-.09,1-.33,1.46-.41.13.26.68.17,1.34.07a4.53,4.53,0,0,1,2,0c.69,0,1.58.06,2.46.05-.22,0-.06.07.15.1.05-.1.19-.35.44-.33A.61.61,0,0,1,32,2c.16,0,.27.06.2.11.14-.14.75,0,1.34.12s1.18.29,1.3.11h0c0-.1,0-.21,0-.31s.21-.11.25-.23.12.12.19.17.31-.14.5-.06v.17c-.19.08-.26.27-.35.44h0a3.13,3.13,0,0,1,.74.23s-.23,0-.33,0c.49.23.84.07,1.21.39.81.3.46.09.61.06l1,.38c.17.11.19.19.49.42.06-.05.18,0,.33,0h0l.11-.12a.17.17,0,0,1,0,.16l-.07,0c.25.09.58.25.9.35l.45.22a2.09,2.09,0,0,0-.56-.14c.94.46,2.06,1.06,3.07,1.62.51.38-.33-.1.07.2a19.84,19.84,0,0,0,1.69,1.06l.44.34.07.07-.21,0a16.53,16.53,0,0,1,2.29,2,.5.5,0,0,1,0-.14l.07.07a2.09,2.09,0,0,0,.5.53c.52.55,1,1.12,1.48,1.71a2.71,2.71,0,0,1-.5-.4c.51.47,1.12,1.43,1.56,1.86l-.24-.12a2.68,2.68,0,0,0,.66.71l.45.72-.1,0a23,23,0,0,1,1.42,2.79c.42.95.78,1.86,1.15,2.59h0c.13.41.26.81.38,1.22-.08,0-.19-.11-.07.42a19.51,19.51,0,0,1,.63,2.57,17.92,17.92,0,0,1,.28,2.83c-.11-.75-.3-1.46-.4-2.28.05.14.09.1.13.16-.11-.8-.3-1.68-.47-2.44s-.36-1.39-.41-1.71c-.12-.53-.33-.57-.6-1.19l0-.33c-.2-.32-.51-1.41-.54-1a3.19,3.19,0,0,1,.29.56l-.09,0c.1.22.19.45.28.67l-.17-.19a1.54,1.54,0,0,0,.36.78,2,2,0,0,1,.42,1l-.18,0A8.4,8.4,0,0,1,54.5,23s.09,0,0-.15,0-.31.09-.23c.4,1.17-.15-.16,0,.69A13.61,13.61,0,0,1,55,25.21a6.07,6.07,0,0,1,.09,1.63c.08-.5.25.22.26.81-.05.27-.12-.18-.18-.27a5.43,5.43,0,0,0,0,.76c.1-.35.24-.13.31.51a6.64,6.64,0,0,0-.07-1.52c.19.2.05,1,.17,1.36v.05c0,.05-.1.17-.16.2s0,.15,0,.21a.15.15,0,0,1,.09,0c0-.12,0-.23.06-.21v.49c0,.26-.12.42-.16.39,0,.13,0,.21,0,.27s.14-.07.12-.12c.21.05-.07.11-.07.17l-.05,0c0,.3.07-.08.14.18,0,0,0,.05,0,.08l-.16.33c.1,0,0-.21.21-.17,0,.25.28.16.31.35s-.38.34-.5.57a.25.25,0,0,0-.12-.09c-.05.78-.13,1.63-.27,2.5h0l.15-.05c.08-.16.11-.36.31-.4a.51.51,0,0,1,.19-.69.86.86,0,0,1,.63.29c.09.27-.19.21-.19.4-.14,0-.09-.11-.19-.12a1.34,1.34,0,0,0-.38.12c-.16.24-.22.59-.56.67h0c-.06.33-.12.68-.2,1a19.46,19.46,0,0,1-1.45,4.3l.18-.13a27.34,27.34,0,0,1-1.67,3.33c-.07,0-.12,0-.07-.17-.14.33-.38.63-.55,1l.41-.53a1.57,1.57,0,0,1-.1.26l-.25.39a1,1,0,0,1-.3.26c-.12.24-.13.32-.1.32-.29.42-.59.84-.9,1.25a1.19,1.19,0,0,1,.19-.42c.22-.1.48-.7.81-1.14-.08,0-.12,0-.09-.13a10.34,10.34,0,0,1-1.48,2c-.15.32,0,.22.17.17l-.35.42c.16-.26.18-.39-.06-.27a3.9,3.9,0,0,0-.54.67c.53-.52.27-.11.16.1s-.45.5-.68.73c0,0,0,0,0,0l.33-.52c-.67.7-1.49,1.49-2.38,2.26a32.12,32.12,0,0,1-2.76,2.13l.8-.54c0,.14-.41.4-.69.63h0c-.51.33-1,.65-1.55.94l0,0a3,3,0,0,0-.32.19l-.74.39c0-.07.1-.12.31-.22a9.06,9.06,0,0,0-1.24.53l.05,0c.1,0,.22,0,.26-.07s.12.27.32.29c0,.09-.07.1-.07.17-.23-.06-.5-.08-.63-.23a.16.16,0,0,1,0-.1c-.29.13-.57.27-.85.37-.5.24-.63.34-.66.41-.19.08-.39.15-.59.22l0-.12c-.28.11-.58.21-.9.31h0a.24.24,0,0,1,.06.17.57.57,0,0,1-.28-.1l-1.07.32-1.38.42-.76.15.08,0-.2,0c-.42.08-.84.14-1.26.19a.62.62,0,0,1,0,.15c-.08,0-.17,0-.19-.06s.15.17.07.35c-.22,0-.29-.22-.31-.44l-1,.14c-.65.05-1.3.08-2,.08l0,0h-.48c-.46,0-.92,0-1.38-.05l-.06,0h-.4a26.85,26.85,0,0,1-2.8-.38h0c-.12,0-.24,0-.28,0h0a26.22,26.22,0,0,1-4-1.13c0,.1,0,.14-.06.2-.18,0-.13-.11-.26-.11a.28.28,0,0,1,.25-.12l0,0a26.57,26.57,0,0,1-5.57-2.83h0a27.09,27.09,0,0,1-2.66-2,.27.27,0,0,1-.24-.17s-.24.14-.25,0,.09-.09.17-.11q-.91-.81-1.76-1.7H9l-.05,0h0a26.9,26.9,0,0,1-6-10s0-.06,0-.1h0c-.18-.56-.35-1.13-.5-1.7l0,.05a2.2,2.2,0,0,0-.19-.78v0a1,1,0,0,0,0-.12s0,.07,0,.1a.31.31,0,0,0,0-.19Q2.1,33.87,2,33.33H2v-.06c0-.19-.07-.38-.1-.58l.11.2c0-.11-.07-.23-.09-.35h0l0-.06,0-.19v.07c0-.31-.08-.62-.11-.93a.12.12,0,0,1-.06,0,.1.1,0,0,1,0-.07h0a7.44,7.44,0,0,0,.09-.76c-.05-.27-.12-.75-.21-1s0-.6,0-.89A26.89,26.89,0,0,1,7.83,11.39.34.34,0,0,1,8,11c-.13-.17-.09-.45-.19-.63s-.2-.09-.19-.23c-.18,0-.08.27-.32.23A.36.36,0,0,1,7,10.1c-.25.29-.51.6-.75.91a2.89,2.89,0,0,1,.32-.61c-.22.34-.56.78-.87,1.19.09,0,.19,0,.17.16s-.33.07-.32.28a.27.27,0,0,1-.14,0,3.72,3.72,0,0,0-.28.51l0-.27a2.82,2.82,0,0,0-.45.93c-.15.25-.31.49-.46.74l0-.1c-.54.91-1.13,1.91-1.6,2.91a12.27,12.27,0,0,0-1,2.82v0c-.14.42-.28.84-.39,1.28-.05-.07-.1-.2-.29.35C.8,21.93.6,22.91.44,24S.16,26.08.07,27c.17.21,0,1.13.1,1.47v.05c-.05.05-.1.17-.16.21.05,1.12.1-.08.16,0s0,.34,0,.51-.09.47-.14.44c0,.83.06.16.18.49v.07L0,30.77a29.86,29.86,0,0,0,.81,4.47,43.51,43.51,0,0,0,1.48,4.58l0-.23a27.57,27.57,0,0,0,1.77,3.51c0,.06-.07.1-.19,0,.23.3.4.68.65,1l-.32-.62a1.84,1.84,0,0,1,.21.24l.24.38a1.16,1.16,0,0,1,.14.41c.2.21.27.26.27.21.31.45.63.9,1,1.33a1.39,1.39,0,0,1-.38-.33c0-.24-.55-.71-.86-1.21,0,.09,0,.12-.15,0,.61.87.95,1.18,1.61,2.18l0,0h0c.27.2.2,0,.17-.15l.38.45-.15-.12-.16,0a.63.63,0,0,0,0,.1,3.57,3.57,0,0,0,.62.67c-.48-.63-.07-.27.13-.14s.46.52.71.77H8l-.52-.39A23.57,23.57,0,0,0,10,50.38a26.32,26.32,0,0,0,3,2.19L12.14,52a2.26,2.26,0,0,1,.62.3c0-.18.16-.44.38-.27.07.15-.13.14-.2.17s0,.13-.12.13l.19.11h0c.32.21.65.42,1,.62,0,0,.07,0,.08,0l-.06,0,.67.39-.06,0,.35.19.77.41a.63.63,0,0,1-.37-.13A11,11,0,0,0,17.59,55c.56.2.73.21.8.18l.62.23-.11.07c.68.23,1.5.51,2.33.71a10.85,10.85,0,0,0,1.51.28l.78.15h-.08l.21,0c.55.09,1.1.17,1.66.24,0,0,0,0-.05,0h-.19c.42,0,.9.05,1.35.07.69.05,1.38.08,2.08.08h0A2.93,2.93,0,0,0,28.94,57.08ZM37,1.23a.44.44,0,0,1,.13.09A.16.16,0,0,1,37,1.23Zm-3.57-.08c.12.11.34.25,0,.29.16-.16-.25-.11-.12-.4C33.48,1,33.43,1.11,33.47,1.15Zm-5-.23v.17h-.12V.93Zm-.94,0c0,.15-.09.21-.18.34s-.18.28-.32.29c0-.23.21-.23.13-.51.13-.06.3-.08.31-.23C27.48.81,27.47.88,27.48.93ZM26.86.87c0,.19,0,.26-.07.4-.32,0-.44.28-.82.29,0-.38.29-.42.44-.63.15,0,.07.17.18.17S26.65.83,26.86.87Zm3-.73,0,.09c-.41,0-.82,0-1.23,0h-.09a12.1,12.1,0,0,0-1.32,0c.24-.06,0-.12.38-.14C28.5,0,29,.17,29.88.14Zm-3.53,0h0l.47,0a1,1,0,0,0-.34.62c-.45,0-.39.36-.56.46-.42,0-.21-.48-.07-.63C26.2.56,26.4.44,26.36.12Zm-3.6.64a6.69,6.69,0,0,1,.71-.09l-.9.18Zm.82.1c0,.12-.17.07-.12.23C23.15,1,23.16.74,23.58.87ZM18.8,2.18c0,.21,0,.45-.25.4C18.58,2.41,18.57,2.18,18.8,2.18Zm-1,.52c-.16-.16.18-.33,0,0Zm3.77-.34a1.65,1.65,0,0,0-.06.22h0l.16,0-.16.08a.16.16,0,0,1-.18.09.35.35,0,0,1-.06-.29C21.41,2.44,21.39,2.31,21.57,2.36Zm-.94.11c0-.2-.1-.48.19-.51C20.79,2.16,20.92,2.51,20.63,2.47Zm1.32-.29c-.12.06-.16-.15-.19-.23-.09-.32-.05-.87.37-.91A1.72,1.72,0,0,1,21.95,2.18Zm8-.49c-.24,0-.05.11-.38.11a14.75,14.75,0,0,0-2.17,0l0-.1,1.17,0h.11Zm4.38.55h-.18l-.64-.17Zm3.29-.57c.16,0,0,.2,0,.23C37.43,1.86,37.68,1.78,37.62,1.67Zm-1,.86a.51.51,0,0,1,.82-.4c.09.14-.15.2-.25.29s-.07.12-.06.11A1.14,1.14,0,0,1,36.62,2.52Zm1.7,0c.19,0-.06.13,0,.23C38.16,2.75,38.3,2.56,38.31,2.52Zm1.77.69V3C40.32,2.94,40.32,3.26,40.08,3.21Zm.44.4c-.07-.59.49-.31.76-.52.22,0,.12.27.37.23.05.16-.09.15-.06.29-.3,0-.45.13-.63-.06A.42.42,0,0,1,40.52,3.62ZM42.8,4l-.11-.09a1.18,1.18,0,0,0,.57.1c.22.28.41.17.82.51.09.2-.42-.14-.63-.19l.57.27a1.08,1.08,0,0,1,.49.48C44,4.69,43.39,4.33,42.8,4ZM42,4.59c.17,0,.16.24.38.23V5a.4.4,0,0,0-.44.05C41.68,4.89,42,4.79,42,4.59Zm-.3.53h.11a.24.24,0,0,1,0,.07Zm.55.1V5h.12v.17Zm3.84,1.83c.08.15,0,.61-.31.63A1.19,1.19,0,0,1,46.06,7.05Zm1.13.52c.12,0-.11.24-.25.23C47,7.67,47.13,7.67,47.19,7.57ZM46.75,8c0,.18-.17.15-.19.29C46.39,8.22,46.62,8,46.75,8Zm-.23.48,0,0s0,0,0,.05Zm1.62.56V8.94h.12v.12Zm1.26,1.31c.08-.21.29-.31.31-.57.3.11-.11.24,0,.51C49.51,10.29,49.54,10.51,49.39,10.37Zm1.51,1.49c-.13.16,0,.61-.31.57C50.63,12.18,50.55,11.83,50.9,11.87Zm1.32,2.29V14h.13v.17Zm.12,1.59h0a.21.21,0,0,0,0,.07Zm.23.41.23.47s0,0,0,.16A1.45,1.45,0,0,1,52.58,16.16Zm.59.91c-.08.33-.29-.21,0,0Zm.95,1.43c-.24,0-.3-.07-.5-.06,0-.17.2-.19.25-.34s-.17-.11-.12-.29.1-.18.19-.29.11-.24.19-.29a.89.89,0,0,1,.31-.05c0,.4-.11.55-.12,1,0,.08.24.22.25.12.13.12,0,.52.38.39a.44.44,0,0,1-.07.35c.09,0,.18,0,.19-.06.11.17-.16.14-.44.17C54.51,18.92,54.16,18.85,54.11,18.51Zm1.32,1.89c-.05.2-.12.39-.38.41C55.21,20.69,55.16,20.4,55.43,20.4Zm1,4.3c.15.2-.24.39-.5.41C56,24.86,56.4,24.95,56.44,24.7Zm-.06,2.12c0,.15-.17.2-.32.23C56,26.82,56.24,26.87,56.38,26.82Zm-.76.91h.12c0,.13-.09.11-.19.12S55.62,27.79,55.62,27.73Zm0,1.21h.13a.39.39,0,0,1-.13.15Zm.39.46a.37.37,0,0,1,.5-.35c0-.18.39,0,.31-.29,0,0,.14.06.13.12s-.1,0-.13.05,0,.14,0,.17-.11,0-.13,0-.06.14-.12.17-.18,0-.25,0S56.19,29.44,56,29.4Zm.82,2.18c0,.15,0,.25-.19.23S56.65,31.56,56.82,31.58ZM54.7,35.51l.13-.37c0,.13-.06.25-.09.37Zm-.09.2a.12.12,0,0,1,0,0v0Zm.76.63c.22,0,0,.4-.19.4C55.2,36.55,55.32,36.47,55.37,36.33Zm-2.77,5.9c.09.21-.17.1-.13.28C52.41,42.43,52.36,42.24,52.6,42.24Zm-.82,1.25c0-.12.05-.18.19-.17v.17Zm-1.89,2.35c.14,0,.49-.1.44.12h-.5c-.07,0-.07.13-.19.12C49.6,45.87,49.87,46,49.89,45.84Zm-2.64,2.35-.54.5A3.23,3.23,0,0,1,47.26,48.19Zm.81.46a.22.22,0,0,1-.25.23C47.89,48.8,47.87,48.62,48.07,48.65Zm-.56.86v-.11h.13v.11Zm-1.91.1a.21.21,0,0,0,0,.07c-.06,0-.12.11-.19.16C45.46,49.73,45.54,49.65,45.6,49.6Zm.4.48c0-.06.08,0,.13-.06s0,.09,0,.18S46.08,50.08,46,50.08Zm-1.83.51c.05-.08.1-.18.25-.17S44.33,50.61,44.17,50.59Zm-.19.35c0,.12,0,.15-.06.23C43.73,51.16,43.77,50.9,44,50.94Zm.76.29v-.17h.13v.17Zm-.25.46c0-.15,0-.25.19-.23C44.68,51.6,44.69,51.74,44.48,51.69ZM37.24,55a2.53,2.53,0,0,1-.25-.46c.24,0,.25.15.44.17a.26.26,0,0,1-.13.23c.05.13.3.19.13.34C37.25,55.23,37.3,55,37.24,55Zm-2.7.85c0-.1,0-.24.19-.22S34.75,55.87,34.54,55.81ZM7.28,11.69c0-.12.05-.18.19-.17C7.41,11.58,7.46,11.73,7.28,11.69Zm-.94-.17h.19C6.62,11.69,6.24,11.69,6.34,11.52Zm.32.29c0-.15,0-.25.19-.23,0,.05,0,.05.06.06S6.82,11.82,6.66,11.81ZM3.6,15.06h0l0,.08Zm-.22.43L3.13,16s0,0-.12.11A1.62,1.62,0,0,1,3.38,15.49Zm-.69,1.88V17.2h.12v.17ZM1.62,22.64v-.12h.19c0,.08-.12.1-.13.18S1.62,22.67,1.62,22.64ZM1,22.92A.43.43,0,0,1,1.3,23C1.3,23.15.93,23.13,1,22.92ZM.36,30.43c0-.16,0-.21.19-.18C.48,30.31.53,30.47.36,30.43Zm.25,1H.74s0,0,.06.05S.52,31.6.61,31.46Zm1.26,2.86c.16,0,.2.08.19.23C1.89,34.57,1.9,34.44,1.87,34.32ZM1,35.45c0,.14.07.27.1.42l0,0ZM3.13,39s.06-.06.06-.12.07.06.13.06-.06.06-.06.11S3.19,39,3.13,39Zm1.64,3.26a.23.23,0,0,1-.25.23C4.49,42.34,4.57,42.26,4.77,42.29Zm-1.38-.63A2.47,2.47,0,0,1,4,41.6C4,41.83,3.42,42.06,3.38,41.66Zm.5,1-.23-.4c.13,0,.26.15.36.17s-.12.12-.12.23Zm1.32,1.49c.12,0,.07.13.13.17S5.23,44.37,5.21,44.18Zm.13.41h.19C5.62,44.74,5.24,44.74,5.33,44.58Zm1.32,2.13c.13,0,.28,0,.32.09a.24.24,0,0,1-.18.07Zm.57.21c0-.07.12-.08.13-.17.19,0,.12.16.31.11C7.65,47.15,7.41,46.85,7.22,46.92ZM8,47.1c0-.15-.24,0-.19-.23.33,0,.37-.06.63,0v.23c-.24,0-.21.15-.32.23S8,47.23,8,47.1Zm.45.17c0-.1.1-.13.25-.11v.17C8.6,47.36,8.57,47.29,8.48,47.27Zm.32.23v-.11h.12v.11Zm.75.75h.13c0,.08,0,.16.06.17S9.35,48.29,9.55,48.25Zm.5.45c-.21-.14.18-.27,0,0ZM9,49.21l.58.54A3.22,3.22,0,0,1,9,49.21Zm.64.35c.15,0,.29.08.32.23C9.84,49.71,9.6,49.75,9.61,49.56Zm1.2.58c0-.08.16-.05.25-.06A.16.16,0,0,1,10.81,50.14Zm.82.11c.24,0,.08.27.13.4-.11,0-.13.07-.26.05C11.54,50.56,11.53,50.36,11.63,50.25Zm-1,.51.09,0L11,51A2.83,2.83,0,0,1,10.68,50.76Zm4.6,1.44c-.06.13,0,.19-.12.34C14.91,52.49,15.11,52.21,15.28,52.2Zm-.88.29s.06,0,.12,0v.12C14.39,52.69,14.4,52.58,14.4,52.49Zm2.21,1.6v.29C16.26,54.46,16.3,54,16.6,54.1Zm1.44.29c0-.21.27-.05.25.11S18.3,54.24,18,54.38Zm3,.23v.17h-.45C20.76,54.71,20.94,54.51,21.07,54.61Zm-3,.17s.08-.13.12-.11C18.46,54.75,18.17,54.93,18.11,54.78Zm1.07.4c.15,0,.15.16.07.23S19.19,55.27,19.18,55.18Zm13.72.75v.17h-.12v-.17Zm-3.65-.05H29A.13.13,0,1,1,29.25,55.87Zm-4.84-.17c-.1,0-.2-.09-.19-.23C24.38,55.45,24.38,55.58,24.41,55.7Zm-1.77-.06c0-.12.12-.23.25-.11S22.78,55.66,22.64,55.64Zm-2.57.24c.1-.12.28-.24.38-.18s-.17.08-.25.17,0,0,0,0Zm1.19,0v-.17c.1,0,.11.05.19.05v.12Zm6-.17h.18v.17C27.43,55.86,27.26,55.91,27.3,55.75Zm1.26.17v.23c-.09-.05-.2-.09-.19-.23ZM27.48,56a.16.16,0,0,1,.13.17A.16.16,0,0,1,27.48,56Zm.19.29c.14,0,.14.15.13.29C27.59,56.67,27.71,56.43,27.68,56.33Zm1.07,0c.16.07.19.13.38.06,0,.21-.07.28-.13.4C28.79,56.74,28.71,56.59,28.75,56.33Zm-3.34.57c-.23-.17.19-.18,0,0ZM19.2,1.64h0l.07,0Zm-2.39,3h0l-.13.08ZM36.65,54.33ZM50.92,10.64Zm4,7.08h0l0,0ZM5.59,11.8l.14-.2h0ZM29,57.08h0ZM5.44,12h0l0,0Zm1.3,34.87h0ZM32.57.28h0Zm5.94,1.38.42.15ZM6.66,46.84l-.05,0ZM49.88,9.2h0l0,0ZM38.46,1.63h0l0,0ZM6.58,46.91Zm0,0a.28.28,0,0,1,0-.06A.29.29,0,0,0,6.58,46.91Zm47-32.67.14.24h0ZM6.68,46.85h0Zm.06,0-.06,0Zm6,5.43h0ZM55.75,19l0-.05h0l0,.05Zm-.33-.94-.09,0c.11.24.2.48.3.72l-.17-.2a1.78,1.78,0,0,0,.39.85,2.29,2.29,0,0,1,.44,1l-.18,0a9.29,9.29,0,0,1,.46,2s.09,0,0-.15,0-.34.09-.25c.42,1.26-.15-.18,0,.73a14.76,14.76,0,0,1,.5,2.07,7,7,0,0,1,.11,1.76c.07-.54.25.25.26.88-.05.29-.12-.2-.18-.3a5.69,5.69,0,0,0,0,.83c.09-.38.24-.14.3.55a19.68,19.68,0,0,0-.5-4.18c.05.16.09.11.13.17-.12-.85-.32-1.8-.51-2.62s-.38-1.5-.44-1.85a1.56,1.56,0,0,0-.24-.56h0s0-.05,0-.09-.17-.27-.28-.48c0,0,0,0,0-.05l-.05-.11v-.35c-.13-.21-.3-.71-.42-1,0,0,0,.08,0,.13A1.33,1.33,0,0,1,55.42,18.08Zm-.34-1c-.14-.26-.25-.63-.34-.65s0,.07.06.24l-.28-.31C54.69,16.75,55.05,17.18,55.08,17.06Zm2,12.08.11.16-.07-.66ZM55.22,17.46l0,.08Zm0,0h0v0Zm-.1.06h0Zm0,0,.05.08Zm0,0v0a.18.18,0,0,0,.1,0C55.16,17.33,55.11,17.32,55.11,17.47Zm-44-8.53a10.37,10.37,0,0,0-1.26,1.19l.09,0a.27.27,0,0,1,.27-.17c0,.26-.14.39-.18.62.4-.41.8-.8,1.22-1.18,0,0,0,0,0,0a.72.72,0,0,0,.12-.12l.39-.35a3,3,0,0,1-.25.28,6.58,6.58,0,0,0,.5-.49c.59-.5,1.22-1,1.86-1.42.06,0,.26-.12.11.08a7.14,7.14,0,0,0-1.53,1,13.48,13.48,0,0,0-1.56,1.48c.13-.17,0-.14.29-.41-.15.1-.55.56-.49.63l-.5.55h0a1,1,0,0,1-.12.34c-.07,0,0-.11-.12-.11l0,0,0,0c0,.06,0,.14.05.23.52-.59,1.05-1.15,1.57-1.68l-.32.43a7.18,7.18,0,0,1,1.48-1.3,5.89,5.89,0,0,0,1.28-1.15l0,.27c.45-.27.79-.66,1.21-1h0s0,0,0-.07a1.38,1.38,0,0,1-.4.27c-.19,0,.22-.27.37-.42h0l-.42.35a1.07,1.07,0,0,1-.59.23c.33-.23.66-.43,1-.64a1.31,1.31,0,0,0,0-.23c-.16,0-.26,0-.25.17-.14.08-.23-.14-.25,0v0l-.37.27c-.54.32.21-.26-.21,0l-.24.14a.37.37,0,0,1-.12.08,9.66,9.66,0,0,0-1.16,1L12,8.24l-.06,0,.08-.2a3.74,3.74,0,0,1-.48.47s.09.15.11,0c.07.05,0,.11.06.29s-.27.1-.32.23-.21-.11-.31-.17Zm3.43-2.56.39-.28Zm0,0Zm.59.32h0l0,0ZM3.28,24.92c0,.15.06.12.09.18.1-.76.24-1.6.41-2.33a8.87,8.87,0,0,1,.49-1.6c.19-.47,0-.63.22-1.25l.22-.23c0-.36.58-1.3.24-1a2.59,2.59,0,0,1-.17.59l-.05-.08-.22.66V19.6c-.45.85,0,.72-.4,1.8l-.18-.06c-.23.75-.26,1.14-.52,1.79,0,0,.09,0,.08-.11s.15-.27.18-.17c-.11,1.18-.07-.2-.32.59l-.17,1.91c0,.31-.06.61-.09.87a.16.16,0,0,1,0,.21h0a2.49,2.49,0,0,1-.1.47c.14-.47.2.25.17.8-.07.25-.1-.18-.15-.27a3.2,3.2,0,0,0-.06.73c.1-.33.23-.1.29.5C3.34,27.33,3.08,26.26,3.28,24.92Zm-.52,4.31-.08-.59,0,.45Zm.62-3.89a.49.49,0,0,0,0-.23l-.07.53Zm1.83-6.93c.08-.25.28-.54.23-.61s-.08,0-.14.18l0-.38C5.16,17.95,5.11,18.46,5.22,18.41Zm4.16-7.73L9.09,11a1.3,1.3,0,0,0,.41.06,1.51,1.51,0,0,1,.44-.63.48.48,0,0,1,0-.29l.07-.06-.07.06C9.78,10.17,9.6,10.39,9.37,10.68Zm6.73,38.61c-.4-.28-.39-.2-.16,0C16,49.28,16.1,49.34,16.11,49.29ZM53,25.23c-.11-.73-.28-1.54-.45-2.23s-.32-1.27-.36-1.57c-.11-.49-.33-.52-.57-1.09l0-.31c-.19-.29-.46-1.29-.51-.87a2.18,2.18,0,0,1,.28.51l-.09,0c.09.2.18.41.26.61l-.16-.17c.19.89.48.5.73,1.59l-.17,0a6.93,6.93,0,0,1,.38,1.72s.1,0,0-.12,0-.29.09-.22c.37,1.06-.14-.15,0,.63a11.81,11.81,0,0,1,.44,1.76A5,5,0,0,1,52.91,27c.08-.45.25.21.25.75-.06.25-.12-.16-.18-.25a4.19,4.19,0,0,0,0,.7c.09-.32.24-.12.3.47a15.9,15.9,0,0,0-.46-3.55C52.87,25.22,52.91,25.18,53,25.23Zm-1.86-6.42c-.13-.22-.22-.54-.3-.56s0,.07,0,.21l-.25-.26C50.72,18.55,51,18.92,51.09,18.81ZM52.8,29.19l-.06-.55,0,.42ZM52.68,38a.56.56,0,0,1,0,.17A.58.58,0,0,0,52.68,38ZM42,50.82c.47-.25.39-.28.06-.17C42.12,50.68,42,50.79,42,50.82ZM53,25.45a.63.63,0,0,0-.07-.22c0,.17,0,.35.07.51ZM24.74,54.25l-.28,0A.76.76,0,0,0,24.74,54.25ZM15.47,6.2a.69.69,0,0,0,.38-.63l0,0-.51.3A2.17,2.17,0,0,0,15.47,6.2Zm.35-.67.37-.22-.37.22ZM26.08,55.07s0,0,0-.06l-.27,0A1.52,1.52,0,0,1,26.08,55.07Zm-3.46-.57L22,54.2C22,54.28,22.08,54.33,22.62,54.5ZM2.35,25.21a.54.54,0,0,0,0-.25l-.06.55ZM5.76,42a.92.92,0,0,0-.13-.15ZM31.89,54.84l0,0Zm-3.24.24c.09,0,.07,0,0,0A0,0,0,0,1,28.65,55.08Zm4.13-.42,0,0h0Zm19-12.43a1.73,1.73,0,0,0,.07-.2A2,2,0,0,0,51.79,42.22ZM18.17,3.85l-.11.06.16-.07-.05,0ZM51,43.56v0h0ZM8.2,10.95h0v0h0l.07-.08ZM54.82,31.17c0-.05,0-.13.07-.22C54.87,31,54.85,31.12,54.82,31.17ZM13.13,6.5l-.06,0,0,.08.18-.13Zm40.53,8.27,0,0h0ZM15.58,51l0,0v0ZM55.24,25.16a.52.52,0,0,0-.07-.23c0,.18.06.38.07.55ZM42.74,50.28l.44-.3h0l.1-.07Zm-8.31,3.46a5.81,5.81,0,0,0,.7,0C35,53.66,35,53.64,34.42,53.74Zm16.48-12c0-.06,0-.13.06-.19A.72.72,0,0,0,50.9,41.69ZM28.57,54.5c-.09,0-.06,0,0,0ZM54,14.88v0Zm-.08.2c.37.57.69,1.4.69.93-.19-.37-.39-.74-.61-1.12a.47.47,0,0,1-.08.2ZM31.06,54.26s0,0,.05.05l.25-.09A1.8,1.8,0,0,1,31.06,54.26ZM8.48,42h0s0,0,0,0Zm.68-2.38,0,.13.07-.11ZM27.89,51.14l.22,0-.83,0ZM5.75,29l.11.12-.08-.52ZM19,48.92c-.14,0-.08,0-.19,0C19.1,49.06,19.21,49.07,19,48.92Zm-2-1.16c-.38-.26-.37-.19-.16,0C16.9,47.74,17,47.8,17,47.76ZM7.74,36.92a.35.35,0,0,0-.09-.12A.4.4,0,0,1,7.74,36.92ZM25.56,6.29c-.07.14-.44.19-.85.24a2.05,2.05,0,0,0-.11.6A1.79,1.79,0,0,1,25,7.05c.25,0,.22,0,.16.1a10.26,10.26,0,0,0,1.19-.37c.11.26.56.18,1.09.09a3.19,3.19,0,0,1,1.61,0c.55,0,1.28.05,2,0-.39.1.66.1.48.23.12-.15.62,0,1.1.08s1,.24,1.06.06l.18.07a.85.85,0,0,1,.52-.44h0A1.06,1.06,0,0,0,34,6.65c-.68-.12-1.11.07-1.69-.1-.26,0-.21-.09-.12-.14a5.49,5.49,0,0,0-1.28,0c-.05-.28-.53-.29-1.09-.26a7.73,7.73,0,0,1-1.33,0h0a6.77,6.77,0,0,0,1.15.06l0,.09-1,0h-.18a1.59,1.59,0,0,1-.12.3H28.2a.64.64,0,0,1,0-.3,6.14,6.14,0,0,0-.68,0c.19-.05,0-.12.3-.14a3.18,3.18,0,0,1,.41,0l0,0-.09,0a13.06,13.06,0,0,0-2,.24C26.47,6.21,25.42,6.46,25.56,6.29Zm7.7.85h-.14L32.63,7ZM25.7,7l-.15,0c0-.16-.06-.39.24-.36A3,3,0,0,1,25.7,7Zm2.9-.37h.12l1,0c-.19,0,0,.11-.3.11-.46,0-.78-.07-1.14-.08l0,0a.08.08,0,0,1,0,0,4.53,4.53,0,0,0-.6,0l0-.09Zm-.38.08ZM51,29.15l-.06-.51,0,.39Zm-42.74-10s-.08,0-.13.15l0-.34c-.17.3-.19.75-.09.72C8.13,19.43,8.31,19.19,8.26,19.12Zm32.16,29c.42-.22.34-.24,0-.16C40.5,48,40.38,48.14,40.42,48.17Zm9-28.64c-.12-.2-.2-.5-.28-.5s0,.05,0,.18L49,19C49.08,19.3,49.4,19.63,49.45,19.53Zm-1.9,21.74h0Zm.67-1.15c0-.06,0-.11.05-.17A1.09,1.09,0,0,0,48.22,40.13Zm0-23.33h-.09l0,.08a.25.25,0,0,1,0-.07ZM10,41.05h0ZM50.45,29.76s0,0,0,0S50.46,29.76,50.45,29.76ZM43.76,12.27l-.07-.06h0ZM23.34,50.56a.16.16,0,0,1,0,0L23,50.36C23,50.41,23,50.46,23.34,50.56ZM9.25,40l-.12-.13A.84.84,0,0,0,9.25,40ZM43.66,12.2h0Zm-3.4-2.77a1.53,1.53,0,0,1,.5.26c0,.12-.13,0-.29,0v0l-.22-.1.45.2a.76.76,0,0,1,.37.4l-.54-.35a.88.88,0,0,1,0,.33c0,.07.11,0,.19.05a.16.16,0,0,1-.05.09c.35.28-.3-.07,0,.16a9.13,9.13,0,0,0,1.35.82l.4.32,0,0h-.19a13.18,13.18,0,0,1,1.87,1.63.39.39,0,0,1,0-.12l.06.06c0,.08.18.23.38.4.43.45.84.93,1.22,1.41a1.83,1.83,0,0,1-.42-.3c.43.37.91,1.17,1.29,1.49l-.22-.08a1.72,1.72,0,0,0,.55.56c.12.2.25.39.37.59h-.08a18.56,18.56,0,0,1,1.15,2.26c.34.78.64,1.52,1,2.1h0c.1.33.21.66.31,1-.07,0-.17-.06-.09.36A15.4,15.4,0,0,1,50.2,25a13.79,13.79,0,0,1,.22,2.35c.2.14.06.84.18,1.11v.07c-.06,0-.11.13-.16.16,0,.85.1,0,.16,0s0,.29,0,.44-.11.31-.15.28,0,.15,0,.2l0-.11c.08-.13.29.13.38,0a.1.1,0,0,1,.07,0,.78.78,0,0,0,0-.16c0-.23,0-.47,0-.71,0-.74,0-1.47-.11-2.19v-.08c0-.06,0-.11,0-.16-.07-.63-.16-1.24-.28-1.85l0,0-.05-.14a22.86,22.86,0,0,0-.9-3.24.22.22,0,0,1,0-.07c-.06-.12-.12-.24-.18-.34a22.17,22.17,0,0,0-1-2.27h0l-.08-.11-.21-.38c0-.08,0-.14,0-.09L48,17.63a.63.63,0,0,0,0,.2.39.39,0,0,0-.31-.23c.09-.06.07-.19.1-.28l.07.13c-.09-.16-.18-.32-.28-.48a5.4,5.4,0,0,0-.5-.9h0l.16.26h0c-.14-.22-.29-.42-.44-.63a4.51,4.51,0,0,0-.33-.57,2,2,0,0,0-.26-.21c-.34-.44-.7-.87-1.07-1.28A.54.54,0,0,1,45,13.4a.38.38,0,0,1-.22-.12c-.37-.38-.75-.76-1.14-1.12l.06,0a.06.06,0,0,0,0,0l-.12-.11s0,0,.07,0c-.2-.19-.28-.09-.5-.38h0l.49.39a.44.44,0,0,1,.06-.21l-.06,0,.41.23L44,12h0l-.25-.15,0,0c-.43-.33-.72-.63-1-.88a3.39,3.39,0,0,0-.39-.33.8.8,0,0,1,0,.17H42l0,0,.58.47.33.25-.26-.15q-.64-.52-1.32-1s-.19-.19,0-.14a4.79,4.79,0,0,0,.63.56.37.37,0,0,1,.1-.3,3.21,3.21,0,0,0-.65-.29l.25-.07a11.11,11.11,0,0,0-1.39-.74h0A.33.33,0,0,0,40.26,9.43ZM50.63,25.27h0s0-.07,0-.11Zm-2.33-6.41s0,0,0,.13a.94.94,0,0,1-.19-.49C48.19,18.63,48.25,18.75,48.31,18.87Zm-.37-.72,0,.06,0-.06ZM47,16.09s-.08,0-.08.07-.1-.4-.19-.23a.11.11,0,0,1,0-.2Zm-.4-.59,0,0-.15-.2Zm-2.3-2.65a.41.41,0,0,1-.19.32l-.12-.1a.44.44,0,0,1,.21-.31Zm-2.92-2c0-.11.17-.07.12-.23C41.68,10.7,41.56,10.95,41.4,10.89ZM40.26,9.43Zm0,0-.06,0ZM50.43,29.62Zm-10.07-20,.1,0h0ZM50.43,29.7a.38.38,0,0,1,0-.08A.38.38,0,0,0,50.43,29.7ZM19.56,8.78l.18,0Zm13.94,41a5.66,5.66,0,0,0,.6,0C34,49.75,34,49.73,33.51,49.81Zm13.32-9h0ZM50.4,30.43l-.08,0v-.14c0,.11,0,.22,0,.33h0A.46.46,0,0,0,50.4,30.43Zm-2.94,9.24a.86.86,0,0,0,.05-.16A1.59,1.59,0,0,0,47.46,39.68ZM30.68,50.25s0,0,0,0l.21-.08A1.2,1.2,0,0,1,30.68,50.25Zm-2.09.23h0C28.5,50.48,28.52,50.48,28.59,50.48ZM46.53,41l.09-.14h0ZM26.41,50.85h0ZM50.46,30.94a.39.39,0,0,0-.16,0,.1.1,0,0,0,0,0,19.9,19.9,0,0,1-.38,2.82A15.25,15.25,0,0,1,48.84,37a2.11,2.11,0,0,1,.06-.29c-.1.36-.54.89-.85,1.58a1,1,0,0,0-.11.84c-.13.24-.26.47-.4.71-.06,0-.11,0-.08-.15-.1.27-.31.51-.44.79l.23-.28a2.57,2.57,0,0,0-.19.41h0a.58.58,0,0,1-.24.19c-.08.19-.1.26-.06.27l-.24.34a.81.81,0,0,0,0-.18,3.34,3.34,0,0,1,.27-.43h0l.09-.12-.12.12s0-.05,0-.12l-.1.16V41a.09.09,0,0,1-.09,0l-.15.24a3.76,3.76,0,0,0-.21.32,4.86,4.86,0,0,1-.66.79c-.11.27,0,.2.17.17l-.28.33c.11-.21.12-.32-.08-.23a1.89,1.89,0,0,0-.4.5l-.62.72c-.45.45-1,.93-1.51,1.4l-.37.31a.37.37,0,0,0,.16,0v.11a.38.38,0,0,1-.17.06v0a.13.13,0,0,0,0,.06l-.14.11a1,1,0,0,1,.14-.14v-.2c-.61.51-1.24,1-1.86,1.41l.65-.44c0,.12-.31.34-.53.52l-.49.3a.91.91,0,0,0,.08.29.44.44,0,0,1-.31-.06.32.32,0,0,0,0-.1l.1-.07-.38.24a4.62,4.62,0,0,1-.88.34c.07,0,0,.07-.2.16-.49.15-1.05.49-1.58.69l-.18.09.09-.05a.29.29,0,0,1,.1.2c-.07,0-.12,0-.13.06a.25.25,0,0,1-.15-.16.88.88,0,0,0-.26.2,1.86,1.86,0,0,0-.35.11h.12l-.27.1,0-.11c-.47.18-1,.36-1.62.53l-.33,0a.28.28,0,0,0,.11,0l-.53.16a.16.16,0,0,1,0-.07,3.6,3.6,0,0,0-.91.31l-.2,0,0,0-.11,0-.44.07.1.07a.26.26,0,0,1-.31.17c0-.1-.05-.12-.07-.19l-.6.08a.08.08,0,0,1,0,0l.14,0-1,.16h-.06a10.23,10.23,0,0,1,1-.23,3.08,3.08,0,0,1-.6,0c-.27.1-.7.21-1.06.3h-.14c.15-.14-.68-.11-.93-.13.05.08.25.11.65.09,0,0,0,0-.08,0h-.83l-.51,0s0-.07,0-.1c-.53.06-.83,0-1.15,0h-.15c-.18-.08.25,0,0-.11l-.46,0c-.33-.07.36-.06-.16-.14a2.12,2.12,0,0,1-.91,0h.12a4,4,0,0,0-.61,0l-.2,0-.15-.1,0,.08-.38-.08a7.76,7.76,0,0,0-1.8-.62h0c.2.1,0,.08-.17.05l.12.05-.52-.17-.05-.08-.11,0-.08,0a2.71,2.71,0,0,1-.11.39c.46.17,1,.34,1.56.48l.32.15-.09-.09.56.11,0,.07a3,3,0,0,0,1,.08l.21,0h.1c.42.08.84.14,1.26.19,0,0,0,0,0,0h-.15l.39,0v-.14c.13,0,.2.07.18.14h.48s-.26,0-.51,0a.16.16,0,0,1-.16,0v0h-.39c.15.06.49.1.59.17l1.13-.16h.14c-.22.14.67.17.92.17C28.57,51,28.38,51,28,51c0,0,.06,0,.13-.05h.45a3.72,3.72,0,0,0,.46,0h.4s0,.07,0,.12l.11,0a.08.08,0,0,1,.1,0,7.13,7.13,0,0,0,1-.16h.08c.25.05-.23,0,.08.1l.46-.14c.35,0-.34.14.2.1a2.67,2.67,0,0,1,.89-.23l-.11,0c.24-.07.57-.11.61-.18l.18,0,.2,0-.06-.07.31-.07a4.73,4.73,0,0,0,2-.39c-.27.05,0-.08.08-.14-.48.08-.53.26-1,.39,0,0,0-.1.12-.16.41-.11.82-.24,1.22-.38l.11,0a11.58,11.58,0,0,0,1.22-.54v-.11c.18,0,.16-.08.32-.06l0,.06.09,0v0a.2.2,0,0,1,.11-.12l.09,0a2.48,2.48,0,0,0,.65-.31c.52-.25,1-.53,1.52-.82h0l.76-.47.16,0a5.08,5.08,0,0,0-.94.68,2,2,0,0,0,.8-.48,3.56,3.56,0,0,1,.86-.58l.05-.25.22-.15s.05,0,.16-.06.08-.1.06-.12c.39-.29.77-.61,1.14-.93l.1-.08,0,0a22.6,22.6,0,0,0,4.84-6,2.16,2.16,0,0,0,.57-.87c.12-.32.08-.33,0-.25l.15-.34c.09-.07.11-.23.19-.41l0-.05a1,1,0,0,1,.13-.22l-.07.07c.23-.54.44-1.09.62-1.66l.06-.08,0,0c.15-.47.29-.93.41-1.4a.3.3,0,0,1,0,.06,1.31,1.31,0,0,0,.15-.65l0,0h0c0-.06,0-.12,0-.18v.15a.21.21,0,0,0,0-.18c.07-.29.12-.6.17-.89h0a.37.37,0,0,1,0,0,.08.08,0,0,1,0,0h0l0,0v0c0-.15.05-.29.07-.43l0,.19v-.52a.36.36,0,0,1,0,.11c0-.3.08-.6.11-.9,0-.09.1-.26.21-.62h0C50.69,30.37,50.61,30.69,50.46,30.94ZM22.15,49.67c.22,0,.39,0,.69.08,0,0-.06.07-.15.07Zm3.29.73a1.92,1.92,0,0,1,.53.07h0Zm6.24.37h-.05a0,0,0,0,1,0,0Zm-.42,0,.08,0,.47-.06A1.77,1.77,0,0,1,31.27,50.77Zm-.39,0c-.05-.16.09-.15.06-.29A.15.15,0,0,1,30.88,50.77Zm7.94-2.58v.11c-.13,0-.12-.08-.13-.17S38.75,48.19,38.82,48.19ZM44.73,44c-.19,0-.19-.2-.25-.34s.17,0,.19-.06C44.86,43.65,44.74,43.76,44.73,44Zm.26-.51c0,.12-.09.11-.19.11s.06-.05.06-.11Zm.11-.3a.82.82,0,0,1-.26.2,1.22,1.22,0,0,1,.3-.39S45.14,43,45.1,43.14ZM46,42v0l.05-.07Zm2.37-3.8-.12.24.11-.33A.58.58,0,0,0,48.4,38.23Zm.49-.93v.11h-.12V37.3Zm1-3.07h0l.11-.28C49.93,34,49.91,34.14,49.88,34.23ZM25.1,50.29a.45.45,0,0,0,.24,0Zm-1.58.33-.19-.09ZM43.64,12.14l0,0h0l0,0ZM35,7.25l-.19,0c.36,0,.72.07.32-.15h0A1.24,1.24,0,0,1,35,7.25Zm4.53,2.43Zm.24.12a.45.45,0,0,0-.1-.17.21.21,0,0,0-.13,0l.25.13ZM32.18,50.7a.63.63,0,0,0-.23.1Zm-3.54.39c.07,0,.05,0,0,0Zm-2.19,0s0,0,0,0l-.23,0A1.32,1.32,0,0,1,26.46,51.1ZM38.69,9.23ZM36.85,7.6l-.06,0,.06,0Zm-.29-.11h0l.07,0Zm-.22-.07h0Zm0,0-.23-.05Zm-1.49.09a.79.79,0,0,1-.56-.34c-.09.07-.13.17-.24.22a3,3,0,0,1,.74.23s-.19,0-.27,0a1.07,1.07,0,0,0,.33.1.2.2,0,0,0,.06-.07.12.12,0,0,1,.11.1.7.7,0,0,1,.49.19c.65.25.38.07.5,0,.28.09.55.21.83.32.12.09.14.17.36.36.15-.14.62.16,1.06.27l.34.18A1.36,1.36,0,0,0,38.19,9h0l.47.23c-.06-.28.09-.37.13-.57a.12.12,0,0,0,.14,0c-.16-.08-.33-.19-.52-.3,0-.08.22.07.36.13a4.89,4.89,0,0,0-.93-.36c-.25-.17,0-.08.09-.09-.47-.17-.81-.33-1.12-.46a.44.44,0,0,1-.29-.11l-.21-.07a.9.9,0,0,1-.3.09.33.33,0,0,0-.2-.18l.26,0a2.28,2.28,0,0,0-.5,0c-.09,0,.25.19-.16.08l.28.12L35,7.3A.52.52,0,0,0,34.85,7.51ZM37.22,8c.62,0,.36.21,1.2.47a7.75,7.75,0,0,1-.76-.15l0,0c-.4-.18-.8-.34-1.21-.5l-.07,0,1,.26Zm-.59-.44.15.05Zm7.14,4.67h0l.24.18c-.14-.1-.13,0-.32-.16h0c.15.14.47.37.53.31a6.85,6.85,0,0,1,1.46,1.65l-.05-.2c.44.29.75,1,1.29,1.71a.33.33,0,0,1,.21,0,.62.62,0,0,0,0,.19l.05.05v0s.07.05.06.07a1.71,1.71,0,0,1,.55.62c-.17-.07-.33-.33-.4-.25.2.2.38.42.57.63a.49.49,0,0,0,.06.15l0,0a.24.24,0,0,0,.05-.09c-.39-.65-.83-1.32-1.32-2a17.24,17.24,0,0,0-2.87-3A.36.36,0,0,1,43.78,12.18Zm3.35,3.71h0L47,15.79A.43.43,0,0,0,47.13,15.9Zm1,1.5Zm0,0-.07-.12Zm.12.35c.4.36.73,1.42.77.94-.23-.43-.48-.9-.76-1.37l-.13.08C48.29,17.65,48.43,17.88,48.27,17.75Zm0-.44h0ZM50.9,29.51a3.92,3.92,0,0,1,.06.39A3.92,3.92,0,0,0,50.9,29.51ZM43.76,12.27l.13.13A.69.69,0,0,0,43.76,12.27ZM7.33,25.86a.5.5,0,0,0,0-.2l-.05.45Zm41.59,10.7a.49.49,0,0,1,0,.14A.37.37,0,0,0,48.92,36.55ZM6.74,29.14l-.08-.5,0,.38ZM46.4,8.86l-.07,0,.46.29-.36-.28ZM7.32,25.66a17.49,17.49,0,0,1,.34-2,6.88,6.88,0,0,1,.43-1.35c.16-.4,0-.53.15-1.06l.21-.19c0-.31.5-1.09.18-.88a1.76,1.76,0,0,1-.13.5l-.05-.07c-.07.19-.13.38-.19.56l0-.21c-.4.72.05.62-.31,1.53l-.17-.06A14,14,0,0,1,7.29,24s.09,0,.08-.1.13-.22.17-.14c-.08,1-.08-.18-.3.49,0,.43-.07,1-.12,1.61a7.12,7.12,0,0,1-.19,1.32c.14-.39.21.2.18.68C7,28.06,7,27.68,7,27.6a2.06,2.06,0,0,0-.06.62c.11-.28.23-.09.29.42.12-1.11-.16-2,0-3.14C7.24,25.63,7.29,25.61,7.32,25.66Zm.09-1.54c0,.14,0,.28-.06.35S7.21,24,7.41,24.12ZM40.17,47.29h0Zm-.07,0,.06,0Zm0,0h0Zm.07-.12v.07C40.27,47.22,40.25,47.21,40.16,47.22Zm-.2.2.13-.08-.1.07v-.05S39.95,47.4,40,47.42ZM1.61,29.11l.11.15-.08-.62ZM8.87,20c.07-.21.24-.45.19-.51s-.07,0-.12.14v-.32C8.78,19.6,8.77,20,8.87,20ZM47.68,39.45l-.12,0h.13ZM9.08,18.52h0L9,18.65ZM7,34.26H7ZM6.92,25Zm14,24.56v0l0,0-.1-.09.07,0a.46.46,0,0,0,0-.1c.19,0,.07-.17.12-.23s.1.07.13.06l0,0c-.34-.11-.58-.16-.87-.26l-.13-.05-.36-.17,0,0a.2.2,0,0,1-.1,0l-.27-.13a1.89,1.89,0,0,0-.5-.23,22,22,0,0,1-2.11-1.19v.11c-.13,0-.16,0-.25-.06s.06-.11.15-.11l.05,0-.12-.07a.85.85,0,0,0-.07-.12,3.78,3.78,0,0,0,.91.49.09.09,0,0,0,0,0l.08.07c-.73-.64-.78-.29-1.61-1l-.23,0-.22-.16s0-.07-.09-.14-.12,0-.13,0a21.85,21.85,0,0,1-2.77-2.5c-.15,0-.12-.11-.24-.11a.09.09,0,0,1,.08-.06,21.82,21.82,0,0,1-2.24-2.89l.08.12a.19.19,0,0,1-.12,0c0-.09,0-.13,0-.16-.28-.44-.56-.89-.81-1.34,0,0,0-.08,0-.12s0,.19-.2.14c0-.14,0-.23.17-.23A2.34,2.34,0,0,0,9,38.31c-.18-.27-.2-.25-.19-.16l-.17-.36a.61.61,0,0,0-.11-.23l-.12-.27a1.08,1.08,0,0,1,0-.16s0,.06,0,.09c-.24-.54-.44-1.1-.62-1.67,0,0,0,0,0-.07h0l-.19-.61a.14.14,0,0,1,0-.09c-.07-.23-.13-.45-.18-.68l0,0a1.39,1.39,0,0,0-.16-.63h0s0,0,0,0a.3.3,0,0,1,0,0,.18.18,0,0,0,0-.15c-.07-.29-.12-.59-.18-.88h0c0-.17-.06-.34-.09-.51l.11.16-.14-.48c0-.27-.07-.53-.09-.8,0-.09,0-.26.1-.62s-.12-.59-.19-.82,0-.5,0-.74a21.51,21.51,0,0,1,.11-2.17v-.19c0-.28.07-.56.11-.84a.06.06,0,0,0-.07.05c-.13,0-.17-.16-.19-.29A.42.42,0,0,0,6.92,25l.1-.61,0,0v-.14A21.75,21.75,0,0,1,7.65,22a.46.46,0,0,1-.18,0c0-.16.11-.2.21-.15.08-.25.16-.5.26-.74l.05,0a3,3,0,0,0,.08-.29A22.05,22.05,0,0,1,9,18.67l-.09,0a.21.21,0,0,1,.16-.1l0,0h0l0-.09L9.38,18s.07-.07.07,0a2.76,2.76,0,0,1,.1-.29L9.93,17a5.93,5.93,0,0,0,.67-.94l-.31.42h0l.46-.67.41-.43c0-.1.08-.18.11-.28.35-.44.71-.87,1.09-1.29.1-.08.18-.14.22-.13a.34.34,0,0,1,.06-.16c.39-.41.77-.79,1.18-1.17l-.18.18c-.16,0-.08-.27-.15-.37-.15.12-.29.25-.42.38.06,0,0,.24-.11.16v-.05l-.26.29.13,0-.06.05c-.1,0-.26.21-.46.48-.41.45-.81.91-1.18,1.39a1.87,1.87,0,0,1,.23-.51A14.22,14.22,0,0,0,10.23,16v-.24a1.79,1.79,0,0,0-.33.77l-.36.57,0-.09c-.43.71-.89,1.49-1.26,2.28a8.27,8.27,0,0,0-.77,2.22h0c-.11.33-.21.67-.31,1,0,0-.06-.07-.1-.05a3.3,3.3,0,0,1,.16-.38c.17-.42,0-.56.17-1.12l.21-.2c0-.32.52-1.13.2-.91a1.93,1.93,0,0,1-.14.52l-.05-.07c-.07.19-.13.39-.19.59l0-.22c-.41.75,0,.65-.33,1.59l-.18-.06a13.69,13.69,0,0,1-.46,1.58s.09,0,.08-.1.14-.23.17-.14c-.08,1-.07-.18-.3.51,0,.28,0,.63-.07,1l.16,0a.87.87,0,0,1-.17.1c0,.18,0,.36,0,.53a7.18,7.18,0,0,1-.2,1.36c.09-.25.15-.11.17.15,0,0,0,.07,0,.11l0,0c0,.14,0,.28,0,.41s-.1-.16-.15-.24a2.42,2.42,0,0,0-.06.64c.1-.29.22-.11.29.36-.05,0-.1.13-.15.16.05.89.1-.07.17,0s0,.24,0,.36-.09.41-.15.38c0,.65.05.12.17.38,0,0,0,0,0,.06l-.18.44a22.76,22.76,0,0,0,.66,3.5c.13.52.29,1,.45,1.55h0l0,0c.19.61.4,1.21.61,1.79a1.31,1.31,0,0,1-.17-.27,16.28,16.28,0,0,0,.63,1.74,1,1,0,0,0,.64.6l.4.7c0,.05-.07.09-.17,0,.19.23.31.53.51.76l-.15-.32a2.31,2.31,0,0,0,.29.34.7.7,0,0,1,.07.29c.16.17.22.2.23.16l.26.36s-.14-.09-.19-.09a3.06,3.06,0,0,1-.3-.42v0L9.89,41a1.46,1.46,0,0,0,.06.16s-.06,0-.11,0c.14.2.27.37.39.51a3.17,3.17,0,0,0,.24.3,7.92,7.92,0,0,1,.64.89c.25.17.21,0,.2-.14l.26.32s0,0,0,0c-.19-.16-.3-.19-.25,0a1.86,1.86,0,0,0,.45.49,9.24,9.24,0,0,0,.68.69A18.39,18.39,0,0,0,14,45.7a19.65,19.65,0,0,0,2.36,1.71L15.69,47a2.89,2.89,0,0,1,.7.32v0c.25.17.5.32.75.47a.32.32,0,0,1,.21-.12c.07,0,0,.06,0,.06,0,.21.21,0,.26.17.09,0,.12,0,.19-.05l.05,0c-.06.26.13.29.38.25,0,.18-.16.17-.25.23l-.08,0h0l.22.19c0-.05.08,0,.24.08a9.82,9.82,0,0,0,1.59.78,1.29,1.29,0,0,0,.61.13,1.6,1.6,0,0,0,.34.16Zm-10-34-.07.12h0ZM9,18H9a.22.22,0,0,0,0,.06A.2.2,0,0,0,9,18Zm-.15.31-.22.42s0,0-.1.07C8.64,18.48,8.75,18.48,8.86,18.32ZM6.53,24.64v-.11c.05,0,.06,0,.06-.06S6.68,24.73,6.53,24.64Zm0,1.84c.08,0,.05.15,0,.17S6.38,26.44,6.53,26.48Zm-.06-.29c0-.14,0-.24.19-.23C6.67,26.11,6.68,26.25,6.47,26.18Zm.12-.45H6.47C6.41,25.45,6.8,25.62,6.59,25.73Zm-.24-.35c0,.11.05.11.08.14-.05.39-.1.76-.14,1.14A6.47,6.47,0,0,1,6.36,25.38Zm.05,1.32Zm-.08,1.81h0v0h0ZM7,34.28a.32.32,0,0,0,0-.1c.06,0,.13,0,.14-.08S7.18,34.27,7,34.28Zm-.07,0a.07.07,0,0,1,0-.07C7,34.11,7,34,7,34c0,.11.05.23.08.35l0,0a.16.16,0,0,1,0,0Zm1.5,4a.22.22,0,0,0,.08.05l.14.27Zm2.21,3.58v-.11h.19c0,.1-.06.1-.06.17S10.75,41.89,10.68,41.89Zm.21.33,0-.07.08.08Zm.76,1.08s.1,0,.18.07a1.06,1.06,0,0,1,.18.29A1.25,1.25,0,0,1,11.66,43.3ZM14.55,46h.08l.19.16ZM7.48,34.77ZM9.28,39h0l0,.07A.71.71,0,0,0,9.28,39Zm3.27,4.64-.16-.17h0l.16.17ZM48.2,46.21a.18.18,0,0,1,.05-.05S48.2,46.13,48.2,46.21ZM15,51.21c-.45-.31-.43-.23-.19,0C14.79,51.18,15,51.26,15,51.21Zm27.6.5c.49-.27.39-.29.06-.17C42.66,51.57,42.52,51.68,42.56,51.71ZM34.12,6.48h0ZM15.28,8.56Zm2.58,41.77-.12-.08h0ZM15.37,8.52l.36-.27h0Zm-5.31,4.77,0,0h0ZM4.94,33.64h0s0-.07,0-.11S4.93,33.6,4.94,33.64Zm46.37-3.89v0Zm0,.05h0Zm0-.11v0Zm0,.11h0Zm0,0a.13.13,0,0,1,0,0A.11.11,0,0,0,51.31,29.76ZM17.78,7ZM51.31,29.75h0Zm0,0h0Zm.07,0s0,0-.06,0S51.36,29.78,51.38,29.77Zm-9.2-19.44h0Zm3.13.53h0l.08.06Zm-11-6h0Zm12,6.86ZM29,4.57h0ZM19,6.33c0,.22-.61.37-1,.68h0l-.43.21A2,2,0,0,0,18,6.88l-.2.1V7h0a13.68,13.68,0,0,0-2.06,1.25.91.91,0,0,1,.06.35.46.46,0,0,1-.5,0c-.14.08-.1,0-.05,0l0,0h0A6,6,0,0,0,13.8,9.65l-.37.3-.08.06.06-.19c-.3.42-1.39,1.14-2,1.88l.13,0-.06.06c-.11,0-.27.23-.48.5s-.62.69-.92,1.05a.25.25,0,0,0,.16,0c0,.12,0,.16-.07.23a1.12,1.12,0,0,1-.19-.14l-.27.33a1.85,1.85,0,0,1,.23-.5l0,0h0l0,0h0A15.7,15.7,0,0,0,8.75,15v-.25a1.9,1.9,0,0,0-.36.81c-.13.2-.26.41-.39.63l0-.09c-.46.77-1,1.61-1.36,2.46a9.44,9.44,0,0,0-.83,2.4h0c-.12.36-.23.72-.34,1.09-.05-.06-.1-.17-.27.29-.13.63-.3,1.46-.43,2.34s-.24,1.8-.32,2.59c.18.18,0,.95.11,1.24,0,0,0,0,0,.05s-.11.15-.16.18c.06,1,.1-.07.16,0s0,.29,0,.43-.09.39-.14.37c0,.71.06.14.17.41,0,0,0,0,0,.07l-.18.46a25.45,25.45,0,0,0,.53,3.08H5v.11H4.94l.15.6a38.85,38.85,0,0,0,1.25,3.88l0-.2A23.56,23.56,0,0,0,7.54,40.3v0c.05,0,.06,0,.06-.05s.09.17,0,.19l.14.26a.17.17,0,0,1,.11,0,.08.08,0,0,1,0,.1l.06.11c0,.05-.07.1-.18,0,.21.26.34.57.56.83L8,41.18a1.16,1.16,0,0,1,.18.2l.21.32a.89.89,0,0,1,.11.36c.16.18.23.21.24.17.26.38.53.75.81,1.12a1.1,1.1,0,0,1-.33-.26c0-.23-.47-.6-.72-1,0,.08,0,.11-.15,0,.53.74.82,1,1.37,1.85.27.19.21,0,.2-.14l.32.38C10,44,9.89,44,10,44.21a2.44,2.44,0,0,0,.53.57c-.4-.54,0-.25.13-.14l.59.65h0L10.72,45a19,19,0,0,0,2.1,2.09,21.19,21.19,0,0,0,2.54,1.85c-.24-.15-.48-.32-.71-.49a3.25,3.25,0,0,1,.75.36h0c.46.3.93.59,1.41.87l-.05,0a2.27,2.27,0,0,0,.3.16l.65.35a.5.5,0,0,1-.33-.11,2.67,2.67,0,0,0,.34.23h.13v.08c.43.25,1,.46,1.42.66s.62.17.68.13l.52.2-.1.07c.58.2,1.28.44,2,.6a8.48,8.48,0,0,0,1.26.22l.7.14h-.07l.16,0c.47.08.94.15,1.41.2h-.07c.05-.14.21-.18.42-.18v.23a.28.28,0,0,0-.19,0l.79,0H27l0-.06c.08,0,.09,0,.08.07.48,0,1,0,1.45,0l0,0a3.49,3.49,0,0,0,.45,0c.4,0,.8,0,1.2,0H30a.56.56,0,0,1,0-.14.18.18,0,0,1,.32.15l.42-.06c.62-.05,1.24-.13,1.84-.23,0-.11.06-.15.18-.14v.11A23.9,23.9,0,0,0,41,49.27a.19.19,0,0,1,.05-.1s.06,0,.07,0a24.26,24.26,0,0,0,9-9.78h-.06c-.05-.17.09-.15.06-.29s.07.08.06.16h0a24.08,24.08,0,0,0,1.26-3.08l.06-.08,0,0,.11-.37h0a0,0,0,0,1,0-.05v0c.11-.36.22-.73.31-1.1,0,0,0,0,0,.06a1.58,1.58,0,0,0,.16-.7l0,0a1.3,1.3,0,0,0,0-.14V34c0-.06,0-.11,0-.19.07-.32.14-.64.19-1v0c0-.17.05-.33.08-.5l0,.2V31.9a.34.34,0,0,1,0,.09c0-.32.09-.63.12-1,0-.09.09-.27.21-.66a7.26,7.26,0,0,0-.11-1c0-.26,0-.51,0-.78a24,24,0,0,0-2.62-10.93h0a.11.11,0,0,1,0-.07,24.15,24.15,0,0,0-7.71-8.79s-.2-.2,0-.14a13.72,13.72,0,0,0,1.32,1.09l1.66,1.33c-.27-.25-.17,0-.49-.32.1.13.56.48.62.41A7.83,7.83,0,0,1,47,13L47,12.79a13.89,13.89,0,0,1,1.51,2v0c.2.25.55.36.84.91-.18-.08-.35-.37-.43-.28.21.23.41.47.61.7,0,.17.61,1,.33.79.42.39.79,1.53.82,1A29,29,0,0,0,48.24,14l-.2-.26-.1,0a.18.18,0,0,1,0-.05,19.18,19.18,0,0,0-1.6-1.82.14.14,0,0,1-.11.14l-.11-.12a.15.15,0,0,1,.14-.11c-.3-.29-.6-.56-.9-.82a.12.12,0,0,1-.08,0s0-.06,0-.09l-.47-.38.43.26a15.09,15.09,0,0,1-1.43-1.21,3.67,3.67,0,0,0-1.41-.85l.26-.06A5.59,5.59,0,0,0,41.55,8h0a0,0,0,0,0,0,0,0,0,0,0,1,0,0l.16.12c.07.19-.37-.11-.55-.14l.5.21a.92.92,0,0,1,.41.43c-.48-.32-1-.63-1.46-.91l-.09-.07a1,1,0,0,0,.5.05A.63.63,0,0,0,41.4,8a.1.1,0,0,1,0-.06h0a2.28,2.28,0,0,1-.59-.42l0,.11c-.18-.1-.23-.17-.41-.27l.07,0,0,0-.05-.07.05.07h0a.37.37,0,0,0-.14.17.19.19,0,0,1-.11-.27h0a6.72,6.72,0,0,1-1-.54c0-.08.23.08.39.14a5.65,5.65,0,0,0-1-.4c-.27-.19,0-.08.09-.09a7.23,7.23,0,0,0-2.56-.81c-.1,0,.27.2-.16.08l.22.1-1-.32c.41.07,1,.15.48-.12l-.18,0c-.78-.11-.52-.28-1.1-.47h-.1c.06,0,0,.14,0,.22-.22,0-.21.27-.38.11.11-.1.2-.22.31-.33a3.6,3.6,0,0,0-.73,0c-.09.07-.17.14-.27.2s-.18.18-.25.29a.85.85,0,0,1-.15-.5h0l-.3-.06c-.28,0-.23-.1-.13-.14a5.69,5.69,0,0,0-1.38,0c-.07-.28-.58-.29-1.18-.27l-.74,0-.12,0-.3,0a7,7,0,0,0,1,0l0,.09H29v0a1.59,1.59,0,0,1-.33,0h-.14a8.37,8.37,0,0,0-1.13,0c.21-.06,0-.12.33-.14a5.66,5.66,0,0,1,.69,0h0l-.31-.07a12.79,12.79,0,0,0-2.21.25c.4-.18-.73.08-.58-.09-.09.17-.65.21-1.2.29S23,5,23,5.2c-.53.07-.53.08-.56.1a3.63,3.63,0,0,1-.67.16s.18-.1.26-.13c-.49.05-.66.37-1.1.32-.74.24-.38.2-.46.32l-.87.33C19.42,6.33,19.37,6.29,19,6.33Zm6.7-1.11c-.22,0-.22-.2-.12-.28S25.73,5.08,25.73,5.22Zm-2.23-.11L23.65,5l.6-.08ZM23,5.39c0-.18.08-.35.25-.4A.24.24,0,0,1,23,5.39Zm11.77,0H35l0,0ZM24,5.56s.09-.13.13-.11C24.32,5.53,24,5.71,24,5.56Zm-4.29.8c.24.12-.12.18-.12.29C19.41,6.6,19.66,6.45,19.68,6.36Zm2.9.22.14,0-.15.08ZM18,7.05a.32.32,0,0,1-.25.52C17.77,7.3,18,7.29,18,7.05Zm1.28.69c.45-.2.91-.39,1.36-.56-.35.15-.67.34-1,.53l.19-.08c-.39.48-.42.1-1.17.59A4.59,4.59,0,0,1,19.32,7.74ZM16,9c.12.11.23,0,.38,0s-.05.29-.13.4a.49.49,0,0,1-.44-.11C15.84,9.18,15.93,9.12,16,9Zm-1.88.57V9.45h.13v.12ZM8,17v-.11H8.1V17Zm-.54.12h0l0,.06Zm-.18.37c-.07.14-.15.29-.22.43,0,0,0,0-.11.08A1.12,1.12,0,0,1,7.25,17.51ZM5.83,22.92c0,.11-.16.15-.31.17C5.49,22.92,5.66,22.91,5.83,22.92Zm-.94,4.3a.3.3,0,0,0,.18.06v.11a.26.26,0,0,1-.18.05Zm.33,7.19.09.35,0,0C5.26,34.64,5.24,34.52,5.22,34.41Zm1.19,3a.48.48,0,0,1,.06.35c-.08,0-.11,0-.13.05C6.17,37.84,6.22,37.42,6.41,37.42Zm3.77,6.07c0,.13-.05.19-.19.17S10,43.48,10.18,43.49ZM11,44.86a.27.27,0,0,0,.05-.17c.05,0,.06.06.13.06v.11Zm1,1.2.48.45A2.3,2.3,0,0,1,12,46.06Zm1.44,1.32h.08l.17.14Zm.89.84c.09-.09.23-.17.34-.26s.05.19.26.11-.13-.1.06-.22c.21.31.72.13,1.07.22-.06.24-.35-.05-.44.18a.5.5,0,0,0-.75.05.33.33,0,0,0-.39,0Zm2.23.61v.11C16.36,48.95,16.55,48.51,16.54,48.83Zm.38.28c0,.11-.16.16-.31.17C16.52,49.05,16.75,49.11,16.91,49.11Zm2.21.45c0,.14.12.19,0,.29S18.88,49.51,19.12,49.56Zm-.45.35c0,.13,0,.18-.19.17S18.54,49.9,18.67,49.91Zm.07.63c.19-.06.11.13.13.23S18.72,50.67,18.74,50.54Zm2.58.23c.15,0,0,.25,0,.29C21.1,51,21.24,50.85,21.32,50.77Zm1.57.4c.24.18-.18.19,0,0Zm.69.17c0-.13.17-.13.25-.06S23.67,51.42,23.58,51.34Zm.89.06c.11,0,.13.07.25.05.06.18-.17.13-.19.23S24.51,51.48,24.47,51.4Zm-1.7.29v.23C22.56,51.93,22.52,51.65,22.77,51.69Zm9.57.46c0,.11,0,.15-.06.23-.13-.1-.13,0-.26-.06a.22.22,0,0,0,.06-.17Zm-1-.12v-.11h.12V52Zm2.27-.23c0,.15-.13.14-.25.17C33.32,51.82,33.43,51.78,33.6,51.8Zm-8.06-.06c.06.21-.33.1-.38.06S25.4,51.72,25.54,51.74Zm5.22-.05h-.19v-.17c.1,0,.11.05.19.05Zm6.54-.75h-.25c0-.12,0-.16.07-.23S37.32,50.8,37.3,50.94Zm.26-.57c.07,0,.05.15,0,.17S37.41,50.33,37.56,50.37Zm-.44-.06c0,.16-.1.19-.25.17v-.17Zm2-.75c.05-.16.19-.24.25-.39C39.57,49.32,39.33,49.56,39.14,49.56Zm-.25-.17c-.15-.12-.32,0-.25.29-.31-.07.06-.5.19-.57C39,49.19,38.77,49.24,38.88,49.39Zm1.45-.91c0,.1-.06.1-.07.17S40.17,48.39,40.33,48.48Zm1.51-.34c-.24,0-.33-.34-.06-.35C41.73,48,41.84,48,41.84,48.14Zm2.33-1.67c0,.13-.18.07-.19.17C43.81,46.59,44,46.41,44.17,46.47Zm-1.21,0-.14.11.17-.17Zm.84-.2c-.15,0,0-.26,0-.29C44,46,43.8,46.11,43.79,46.24Zm.15-.63a2.93,2.93,0,0,1,.42-.41Zm2.8-1.43c-.19.21-.21-.17,0,0Zm.7-1.43a.15.15,0,0,1-.12-.17C47.45,42.54,47.43,42.65,47.44,42.75Zm2.27-4.7a.18.18,0,0,1,.19-.12A.18.18,0,0,1,49.71,38.05Zm.44-1.43c-.22-.11.18-.13.19-.23C50.56,36.5,50.15,36.52,50.15,36.62Zm1.2-.57c0-.12.05-.19.19-.17C51.46,35.92,51.51,36.08,51.34,36Zm.5-1.83c0,.11-.17.11-.19.22C51.49,34.37,51.65,34.13,51.85,34.22Zm-1.12.24h0l.12-.29Zm.55-.48v.12h-.13V34Zm.13-1.43c.09.17-.29.17-.19,0Zm-.13-.74c0,.26-.38,0,0,0Zm1.47-1.91a.15.15,0,0,0-.08.13c-.11,0-.06-.24.06-.28S52.74,29.85,52.75,29.9Zm-.65.25c-.13,0-.13-.09-.06-.17h.12A.27.27,0,0,0,52.1,30.14Zm.13-.81v-.11s.06,0,.06-.06S52.38,29.43,52.23,29.33Zm-.95-3.55c0-.1,0-.23-.12-.28h0c0-.05.06,0,.06,0,.23,0,.29-.2.5-.23A.56.56,0,0,1,51.28,25.78Zm0,.82c-.09-.4-.18-.81-.23-1.25,0,.11.08.09.12.12C51.21,25.85,51.24,26.24,51.27,26.6ZM49.1,18.48s0,0,0,.13a1,1,0,0,1-.2-.51Zm-.38-.75,0,.07,0-.07Zm-.71-2c-.19-.12.09-.3.25-.28C48.34,15.72,48.08,15.66,48,15.76Zm-4.72-4.92c-.19-.06.07-.16.06-.23C43.54,10.66,43.32,10.8,43.29,10.83Zm-.19-.34c-.17,0-.36-.19-.19-.35A.21.21,0,0,1,43.1,10.49ZM38.69,7.63c-.22-.18.13-.3,0,0Zm.13-.69v.23c-.1,0-.24,0-.26.06C38.43,7.16,38.6,6.88,38.82,6.94Zm-.91-.64c.66,0,.39.23,1.3.51-.28,0-.65-.17-.83-.18l0,0c-.48-.22-1-.42-1.48-.6l1.17.33ZM31.16,6c-.4.08.68.09.5.23.12-.14.64,0,1.14.08s1,.25,1.1.07l.19.07c0-.09.09-.23.13-.28s0,.21,0,.3a1.07,1.07,0,0,0,.31.08,2.27,2.27,0,0,1,.18-.39.59.59,0,0,0,.5.11,2.49,2.49,0,0,0,.07.56A1,1,0,0,1,35.7,7c0-.09,0-.17,0-.24s-.07-.06-.07-.11.06-.08.07-.06-.07,0-.07,0,0-.28-.06-.4c.51-.07.3.53.44.8.18,0,.26-.11.44-.12s.11.11.25.17.3,0,.39.06,0,.08.06.12a.26.26,0,0,1,.12.33h0a2.56,2.56,0,0,0,.26.24c.16-.14.63.17,1.09.29l.36.19a1.64,1.64,0,0,0-.44-.1l1.18.6c.16-.1.26-.24.45-.3.13.15.35.22.38.45h.25c.08.19-.21,0-.13.23a.21.21,0,0,0-.31,0l.78.41c.43.32-.28-.07.05.18a4.89,4.89,0,0,0,.95.6l0-.06a.15.15,0,0,1,.13.16h0a2.91,2.91,0,0,1,.29.17l.42.33,0,0-.19,0a3.72,3.72,0,0,1,.93.74h0l.26-.27c.16,0,.24.08.25.23s-.18.18-.28.27h0c.27.26.53.52.78.74a.42.42,0,0,1,0-.13l.06.06c0,.1.19.23.39.42.45.47.86,1,1.27,1.47a2,2,0,0,1-.43-.33c.45.39.95,1.22,1.33,1.57l-.22-.08a2,2,0,0,0,.56.58l.38.59,0,0c.25,0,.47,0,.57.11s-.21.32-.39.42l-.11-.19a19,19,0,0,1,1,2.07c.36.8.67,1.58,1,2.19h0c.12.33.22.68.32,1,0,0-.07,0-.09,0a3.62,3.62,0,0,1-.08-.42c-.1-.45-.31-.47-.54-1l0-.29c-.18-.26-.42-1.2-.48-.8a1.92,1.92,0,0,1,.26.47h-.08l.24.56-.15-.15c.16.82.47.46.69,1.47l-.17,0a6,6,0,0,1,.34,1.59s.09,0,0-.12,0-.27.1-.21c.36,1-.14-.13-.06.58A9.87,9.87,0,0,1,51,25.72a4.26,4.26,0,0,1,.08,1.38c.05-.25.13-.13.18.12,0,0,0,.08,0,.12l0,0a2.3,2.3,0,0,1,0,.41c-.06.23-.12-.15-.17-.23a3.85,3.85,0,0,0,0,.64c.09-.29.23-.12.29.35,0,.05-.1.14-.15.16,0,.89.1,0,.17,0s0,.31,0,.46-.1.32-.15.29,0,.16,0,.22,0,0,0-.09a.72.72,0,0,0,.34-.3c.22,0,.16.2.38.17,0,.33-.32.39-.5.4l-.09,0v0l-.23.41a21.18,21.18,0,0,1-.43,3.59,15.92,15.92,0,0,1-1.22,3.63l.16-.1a24.18,24.18,0,0,1-1.42,2.83c-.06,0-.11,0-.08-.16-.12.28-.33.53-.46.81l.35-.44-.07.2-.24.38a.57.57,0,0,1-.25.18c-.09.21-.1.28-.07.28-.25.36-.5.71-.76,1.05a1.06,1.06,0,0,1,.14-.36c.2-.07.41-.59.68-1-.07,0-.12,0-.09-.12a9,9,0,0,1-1.06,1.53.19.19,0,0,1,0,.3,1.08,1.08,0,0,1-.2-.14l0,0c-.12.29,0,.21.17.17l-.28.34c.11-.21.12-.32-.09-.22a2.52,2.52,0,0,0-.45.56c.44-.42.25-.08.16.1l-.48.51c0,.22-.21.28-.25.48-.13-.08.06-.2-.07-.35.2,0,.1-.19.28-.17l-.07.13.26-.45c-.57.59-1.26,1.25-2,1.91A28.37,28.37,0,0,1,41,47.68c.23-.15.45-.29.67-.45,0,.13-.33.35-.56.54-.43.28-.86.55-1.31.8h0a1.56,1.56,0,0,0-.27.16L39,49a.51.51,0,0,1,.25-.19c-.54.13-1.21.54-1.83.78-.42.2-.52.29-.55.36l-.5.19,0-.11c-.54.2-1.2.41-1.85.6-.41.12-.81.23-1.16.36l-.61.11h0l-.1,0-.68.11c.05.11.28.05.24.25-.3-.05-.31-.15-.57,0a.89.89,0,0,1-.06-.2l-.33,0a.08.08,0,0,1,0,0l.15,0-1,.16c-.58,0-1.16.07-1.75.08l0,0h-.35c-.42,0-.83,0-1.23-.05l0,0h-.27A22.8,22.8,0,0,1,18.12,49c-.07.22-.19.48-.45.32,0-.18.13-.19.31-.17a.71.71,0,0,1,0-.2.1.1,0,0,0,.06,0,22.93,22.93,0,0,1-8.59-7.76c0,.11-.1.15-.06.31H9.23c-.08-.1,0-.3.23-.34h0a22.85,22.85,0,0,1-2.58-5.34v-.07h0c-.15-.48-.29-.95-.42-1.43a.1.1,0,0,1,0,0,1.47,1.47,0,0,0-.16-.66h0a.16.16,0,0,1,0,0,.12.12,0,0,0,0,0,.21.21,0,0,0,0-.15c-.07-.3-.13-.62-.18-.93h0c0-.17-.07-.35-.09-.53l.1.17L6,31.75c0-.27-.07-.55-.1-.84,0-.09,0-.27.1-.64-.05-.22-.12-.61-.2-.85s0-.51,0-.77a22.83,22.83,0,0,1,.79-6c-.06,0-.12,0-.12.07s0-.2-.07-.29.07.18.19.18c.1-.35.19-.7.31-1l0,.05c-.08,0-.17-.12,0-.11A22.88,22.88,0,0,1,15.5,9.91l0-.05c-.06,0-.13.1-.19.12s-.5.11-.5.34c0-.1-.19-.09-.25-.17s0,.22-.25.17c0-.2.16-.31.13-.57.19-.08.49-.35.69-.23s.07-.17.19-.17,0,.07.07.11.2.08.31.18,0-.26.19-.18a.35.35,0,0,1,0,.18c.44-.29.89-.57,1.34-.83l.07,0a.83.83,0,0,0-.27.39c-.29,0-.27.23-.65.4-.19,0,.24-.28.34-.41l-.39.34a.81.81,0,0,1-.47.18h0a.31.31,0,0,1,0,.12s-.07,0-.11,0a.24.24,0,0,1,0,.08l-.08,0v0h0a7.05,7.05,0,0,0-1.23.84A12.27,12.27,0,0,0,13,12.12c.11-.15,0-.13.25-.36-.13.08-.48.5-.42.57a17.38,17.38,0,0,1-1.57,1.58l.19-.08c-.23.51-1,1-1.45,1.83v0a4.69,4.69,0,0,1-.46,1.06c0-.19.16-.44.06-.47-.12.26-.23.53-.33.79-.15.09-.53,1-.5.64-.1.52-.72,1.43-.32,1.17a19.41,19.41,0,0,1,2.16-3.61,34.68,34.68,0,0,1,2.56-3h0a.28.28,0,0,1,.32-.32.53.53,0,0,1,.09-.1l-.07.1h0a6.49,6.49,0,0,1,1-.85,4.56,4.56,0,0,0,1.12-1l0,.26c.59-.34.93-1,1.65-1.15l-.09,0c.16-.09.25-.1.42-.2h-.08a3.6,3.6,0,0,1,1.14-.62c.06,0-.2.13-.32.21.23,0,.51-.34.87-.5s0,.08,0,.13A15.28,15.28,0,0,0,21.52,7c.06-.08-.32,0,.08-.16l-.17,0,.86-.27c-.36.16-.78.39-.28.33l.13-.1c.68-.3.55,0,1.11-.13s.91-.46,1.41-.55a.41.41,0,0,1,.18-.08.16.16,0,0,0,0,.06h0c.27,0,.24,0,.17.1A2.6,2.6,0,0,0,25.85,6c0-.05.05-.16.07-.18S26,5.93,26,6a2,2,0,0,1,.31-.08c.11.26.57.18,1.13.08a3.43,3.43,0,0,1,1.68,0C29.66,6,30.42,6,31.16,6Zm1.64.14.64.13H33.3Zm-4.06-.39c.31,0,.66,0,1,0-.2,0,0,.12-.32.11a11.66,11.66,0,0,0-1.84,0l0-.09,1,0Zm-6.47-.1s.17.09.19,0a.91.91,0,0,1,.12.86h-.25c-.09-.08.15-.63-.25-.4C22,5.86,22.44,5.93,22.27,5.68Zm-1.83.52c.16,0,.22-.11.31-.17.31,0,.09.44.19.51-.19.12-.28-.07-.5-.05ZM32.71,52.37h0l-.11,0ZM48,13.64h0l.05.07Zm2.18,25.78.06-.12-.06.12Zm-.08-21.71,0,0,0,0ZM4,38.39c0-.07-.07-.14-.1-.14A.92.92,0,0,1,4,38.39Zm9.65-25.88,0,0h0l-.11.1A.51.51,0,0,0,13.69,12.51ZM55,28.64l0,.46.11.14ZM53.14,17.92c-.13-.25-.23-.59-.32-.6s0,.07.05.22l-.27-.27C52.75,17.63,53.1,18,53.14,17.92ZM21.79,7.76l.08,0-.16,0h.08ZM28,55.09c-.32,0-.65,0-1,0h.71ZM25.61,52.6h0Zm-6-43.69.27-.14h0a.21.21,0,0,0-.15,0A1.39,1.39,0,0,1,19.63,8.91ZM38,48.4c.12-.08,0-.08.1-.16C37.8,48.37,37.72,48.44,38,48.4Zm-8.87,2,.79-.1-.59.07Zm-14,.35-.15-.09h0ZM9.74,47.23ZM7.09,13.38l.12-.18h0Zm8.14,37.49h0l-.16-.08Zm-4-2.22,0,0h0Zm15,6.34h0ZM34.56,3.44h0l-.06,0ZM43.29,49.9h0l0,0ZM39.2,4.55h0l.13.05ZM21.44,3.18c-.53.06-.73.39-1.2.35-.81.25-.42.2-.51.33-.31.12-.63.23-.95.36s-.26,0-.64.05c0,.21-.66.39-1.11.72l0,0-.48.24A1.93,1.93,0,0,0,17,4.87l-.47.24a.85.85,0,0,0-.08.51c-.2.07-.27.25-.51.29.06.23-.19.17-.12.4-.18,0-.24.11-.31.2h0l.25-.08-.11,0c.19-.11.28-.11.47-.22h-.1a4.38,4.38,0,0,1,1.31-.7c.05,0-.23.14-.38.23a11.39,11.39,0,0,0,1-.56c.34-.09,0,.08,0,.13a20.18,20.18,0,0,0,2.58-1.2c.07-.08-.36,0,.09-.16L20.41,4c.36-.11.73-.23,1.09-.33-.42.17-1,.44-.38.37l.15-.11c.77-.33.62-.05,1.25-.17a9.88,9.88,0,0,1,1.83-.62c.3-.06.27,0,.18.09.69-.09.94-.32,1.41-.4.13.26.65.17,1.29.07a4.27,4.27,0,0,1,1.9,0h.08l0-.06h.27a14.65,14.65,0,0,0-2.09-.05l0-.09,1.12,0h.11l.89,0c.08-.06.14-.16.21-.19s.08.07.13.06.2-.2.37-.17c0,.14-.12.13-.06.29-.18,0-.2.2-.45.17l0,0c.53,0,1.12.06,1.71,0-.33.06.25.09.49.15h0c0-.17.19-.37.28-.51.21.08.11.35,0,.53a5.35,5.35,0,0,1,1.07.17c.24.05.47.11.67.15l0,0c.05,0,.14,0,.19-.06s0-.15.12-.11a.76.76,0,0,1,.15.22l.06,0a2.94,2.94,0,0,0,.59.19,2.71,2.71,0,0,1,.71.22s-.22,0-.31,0c.47.22.81.07,1.16.37.78.29.45.09.59.05l1,.36c.16.11.17.19.46.41.17-.14.72.21,1.25.36h0l.43.21a2.28,2.28,0,0,0-.53-.13c.9.45,2,1,3,1.55.49.37-.31-.09.07.19a15.76,15.76,0,0,0,1.63,1l-.06,0c.1-.09.21-.13.33,0a.76.76,0,0,1-.06.19l.19.16.07.07-.21,0a3.4,3.4,0,0,1,.81.61h0a.4.4,0,0,1,.06.09h0c.42.4.91.88,1.32,1.25a1,1,0,0,1,0-.14l.07.07c0,.11.22.28.48.5h0a.33.33,0,0,1,.08-.1c.21-.05.24.23.15.35.42.46.82.93,1.21,1.41a2.39,2.39,0,0,1-.49-.38c.5.45,1.08,1.37,1.5,1.77l-.24-.09a2.43,2.43,0,0,0,.42.5h.09v.07s.09.07.13.11l.43.69-.1,0a22.72,22.72,0,0,1,1.37,2.68c.41.92.75,1.8,1.11,2.49h0c.13.39.25.78.36,1.17-.07,0-.18-.1-.07.41a19,19,0,0,1,.61,2.46,17.44,17.44,0,0,1,.27,2.78c.21.17.05,1,.19,1.31v.06c-.06,0-.11.15-.17.19,0,1,.1-.05.17,0s0,.32,0,.48-.11.41-.15.38c0,.75,0,.15.13.46v.08l-.24.46a24.73,24.73,0,0,1-.43,3.7.13.13,0,0,1,.18,0c0,.14-.14.2-.24.28v0s0,.07,0,.11a19,19,0,0,1-1.17,3.66.66.66,0,0,0,0-.1c-.12.43-.61,1.06-1,1.88a1.35,1.35,0,0,0-.19.88l-.29.51v0l-.13.06h.13l-.22.38c-.07,0-.12,0-.07-.17-.14.32-.37.6-.53.92l.39-.5,0,.13a2.89,2.89,0,0,0-.15.27l-.14.23a1,1,0,0,1-.24.23l.06-.08-.11.11h0c-.08,0-.12,0-.09-.13a9.41,9.41,0,0,1-1.42,2c-.15.32,0,.22.17.17l-.34.41c.15-.25.17-.38-.06-.26a3.49,3.49,0,0,0-.52.64,1.82,1.82,0,0,1,.27-.23l-.49.55,0,0c-.64.66-1.43,1.43-2.29,2.17-.67.58-1.39,1.15-2.1,1.66h0l.2-.13s-.07.11-.15.19h0c0,.07,0,.07-.08.05l0,0-.45.37h0c-.49.32-1,.62-1.5.91l0,0-.21.13-.46.16c.09,0-.06.08-.28.2a.69.69,0,0,1,.23-.13,5.68,5.68,0,0,0-.87.34.08.08,0,0,1,0-.07c-.22.1-.33.17-.29.18-.31.15-.64.31-1,.43-.48.22-.6.32-.63.4l-.57.21,0-.12c-.61.23-1.37.46-2.1.68l-.1,0h-.06l-.53.16v0a3.63,3.63,0,0,0-.85.27l-.52.1.07,0-.19,0c-.49.09-1,.16-1.5.21,0,0,0,0,0,0l.16,0-.26,0,.25-.06a5.05,5.05,0,0,1-.71,0l-.67.18v.11h-.12v-.08l-.17,0-.46,0a4.93,4.93,0,0,0-1.11-.08s.15.09.36.1H28a.32.32,0,0,1,0,.12.16.16,0,0,1-.12-.12h-.26a.14.14,0,0,0,0-.06,6.13,6.13,0,0,1-.81,0l-.05,0h-.39l-.22,0s0,0-.1-.07l-.36,0-.29,0c.07,0,.33,0-.1-.1a1.2,1.2,0,0,1-.45,0l-.53-.08h.05l-.19,0-.9-.16-.06,0v0l-.75-.17-.39-.17a7.48,7.48,0,0,0-1.41-.42c.12,0,.14.08.11.09a.35.35,0,0,1-.06.28c-.14,0-.14-.14-.12-.29h.05l0,0-.37-.12c-.05.08-.18,0-.14,0l.1,0-.29-.1v0c-.23-.09-.43-.15-.61-.2-.42-.16-.84-.33-1.25-.51h0a26.18,26.18,0,0,1-2.54-1.29.22.22,0,0,1,0,.07c.17.09.4.14.38.4-.17-.11-.27-.13-.44-.23s-.63-.33-.68-.7l-.49-.3,0,0c.23.13.38.23.51.31a.26.26,0,0,1,0-.1c.2,0,.23.17.33.28l.2.08h.08a3.38,3.38,0,0,0-.84-.52,3.37,3.37,0,0,1-1-.66H13.5c-.4-.29-.79-.59-1.18-.9a.35.35,0,0,1-.18.13.26.26,0,0,1,.11-.19A26.15,26.15,0,0,1,5.74,41a3.7,3.7,0,0,0-.4-.89,1.46,1.46,0,0,0-.18-.24,26.9,26.9,0,0,1-1.22-3v-.09l0,0q-.26-.81-.47-1.63l0,.05a2.06,2.06,0,0,0-.19-.75v0l0-.12,0,.1a.24.24,0,0,0-.05-.19c-.08-.35-.15-.71-.2-1.06v0c0-.18-.06-.38-.09-.56l.1.19-.16-.58a.48.48,0,0,0,0,.07c0-.33-.09-.67-.12-1,0-.1,0-.31.1-.73-.06-.26-.13-.72-.22-1s0-.57,0-.85A25.86,25.86,0,0,1,5.92,16h0v0c.3-.53.61-1,.95-1.55.11-.15.22-.31.34-.5s.36-.53.56-.78l-.16.22a.25.25,0,0,1-.14-.29c0-.16.2-.16.25-.29s0-.28.07-.35c.29.1,0,.34.06.52V13l-.09.11L7.93,13l.05-.1c.29-.38.59-.75.9-1.11a.52.52,0,0,0,0-.23l-.17-.07c-.25.29-.5.58-.73.88a2.4,2.4,0,0,1,.28-.57c-.26.41-.72,1-1,1.44a.2.2,0,0,0,0,.21c-.05,0-.09-.05-.13,0a2.55,2.55,0,0,0-.18.35l0-.26a2.31,2.31,0,0,0-.41.87c-.14.22-.29.45-.43.68l0-.09c-.5.84-1,1.76-1.49,2.68a10.62,10.62,0,0,0-.92,2.62h0c-.13.39-.25.79-.37,1.18-.05-.07-.1-.18-.28.32-.15.68-.33,1.6-.48,2.55s-.25,1.93-.34,2.78a11.74,11.74,0,0,1,.07-2.3c0,.15.06.11.08.19.11-.79.25-1.67.42-2.41a9.33,9.33,0,0,1,.51-1.66c.19-.5,0-.66.22-1.31l.23-.24C3.78,19,4.34,18,4,18.26a2.85,2.85,0,0,1-.18.61l0-.07c-.08.23-.16.46-.23.69v-.25c-.46.89,0,.74-.43,1.87L2.93,21c-.24.78-.28,1.2-.54,1.86,0,0,.08,0,.08-.11s.14-.28.18-.18c-.12,1.22-.07-.21-.32.61l-.18,2a10.53,10.53,0,0,1-.22,1.61c.15-.48.21.26.18.83C2,27.92,2,27.46,2,27.36a3.64,3.64,0,0,0-.06.76c.11-.35.23-.11.29.51a11.55,11.55,0,0,0,0-1.5c.16.21,0,1,.1,1.35v0c-.06.05-.11.16-.17.2.05,1,.09-.07.17,0s0,.32,0,.47-.09.44-.14.41c0,.77.05.14.17.45a.44.44,0,0,0,0,.07l-.17.51a27.94,27.94,0,0,0,.75,4.13c.33,1.28.76,2.56,1.19,3.77L4,38.4a18.88,18.88,0,0,0,.77,2c.27.51.45.6.62.68s.19.35.29.52h0v.14l.05-.12L6,42c0,.06-.07.1-.19,0,.22.28.38.63.6.91l-.29-.59.1.1a1.43,1.43,0,0,0,.19.26l.13.22a1.3,1.3,0,0,1,.12.32l-.05-.09.06.14h0v0h0c0,.08,0,.11-.16,0,.57.81.89,1.09,1.5,2,.29.21.22,0,.2-.14l.36.42c-.24-.2-.37-.25-.29,0a3,3,0,0,0,.57.62,1.55,1.55,0,0,1-.2-.3c.15.18.31.37.5.56l0,0c.19.22.39.45.61.68h.06a.09.09,0,0,1,0,.07c.45.46.94.94,1.48,1.4h0v0l.12.1a22.55,22.55,0,0,0,2.78,2c-.26-.17-.52-.35-.77-.54a4.55,4.55,0,0,1,.82.41h0c.5.33,1,.65,1.54.94l-.06,0,.22.12.39.3c0-.07.11,0,.33.12a.76.76,0,0,1-.25-.11,4.39,4.39,0,0,0,.82.5.11.11,0,0,1-.09,0c.23.12.36.16.33.11l1,.44c.52.19.67.19.75.16l.57.21-.11.07a20,20,0,0,0,2.16.66l.1,0,.09,0h0l.55.11v0a2.88,2.88,0,0,0,.89.12h0c.05-.07.16-.07.29-.05a.1.1,0,0,1-.08.09l-.19,0,.53.1h-.07l.18,0c.51.1,1,.17,1.55.23,0,0,0,0,0,0h-.17l.27,0h-.27c.18.06.58.11.7.17h.15a.29.29,0,0,1,0-.22c.15,0,.09.15.15.21l.75-.08.44,0a3.8,3.8,0,0,0,1.13.13c0-.06-.18-.09-.43-.11h.31s0,0,0,0l.5,0h.52s0,0,0,.06c.33-.05.6-.07.82-.1l.06,0,.48-.07H31c-.05,0-.08,0,.09.05l.36-.1.13,0a.15.15,0,0,1,0-.06,2.25,2.25,0,0,1,.34.07h0a2.92,2.92,0,0,1,.38-.11l.51-.08-.06,0,.25-.05.85-.16H34l0,0c.25,0,.5-.11.75-.17l.45,0a4.81,4.81,0,0,0,1.17-.29.38.38,0,0,1-.14-.28c.17,0,.2.13.25.24l.17-.07c-.21,0-.16,0-.05-.06l.71-.23h0c.25-.08.45-.17.62-.24l1.24-.51h0A26.47,26.47,0,0,0,43,50.69h0a7.62,7.62,0,0,0-1.1.79,2.69,2.69,0,0,0,.94-.57,4.88,4.88,0,0,1,.5-.38h0c-.1-.1,0-.21.2-.22,0,0,0,.07,0,.1l.32-.19.05-.17a26.3,26.3,0,0,0,4.26-3.81c-.1,0-.11-.15-.17-.22s-.16.08-.25.11-.07-.09.07-.05l0,0h0a1.62,1.62,0,0,1,.32-.41c0,.07-.09.18-.13.26a2.72,2.72,0,0,1,.45,0,26.34,26.34,0,0,0,3.3-4.77,2.86,2.86,0,0,0,.49-.85,1,1,0,0,0,.09-.3q.42-.87.77-1.77a.49.49,0,0,1-.14-.27.27.27,0,0,0,.23,0c.13-.35.26-.7.38-1l.06-.09v0c.18-.54.34-1.09.48-1.65a.31.31,0,0,1,0,.06,1.63,1.63,0,0,0,.18-.75v0c0-.05,0-.1,0-.16l0,.13a.27.27,0,0,0,0-.2c0-.09,0-.18.05-.28h0l0,0a.05.05,0,0,0,0,0l.08-.44a.32.32,0,0,1-.41.05c.11-.06.14-.18.18-.29s.18,0,.29-.07a.09.09,0,0,0,0,0v-.05c0-.18.07-.36.09-.54l0,.21c0-.2,0-.41,0-.62a.8.8,0,0,1,0,.11c.05-.35.09-.69.13-1a.59.59,0,0,0,0,.08.63.63,0,0,1-.17.06,1.08,1.08,0,0,1,.31-.8H55l0-.06a7.39,7.39,0,0,0-.11-1c0-.29,0-.57,0-.85a26.22,26.22,0,0,0-3.33-12.83h0l0,0c-.3-.53-.61-1-.93-1.54a5.24,5.24,0,0,0-.37-.54l-.2-.28.13.17a.37.37,0,0,1-.12.2c-.16-.06,0-.27,0-.38s-.24-.35-.37-.51l-.11-.19-.09-.08,0,0h0s0,0,0,0l-.15-.19c-.09,0-.2-.08-.23-.14a.15.15,0,0,1,0-.12c-.39-.48-.79-1-1.21-1.4a.12.12,0,0,1,0-.06h0q-.77-.82-1.6-1.57h0L46.19,9h0a0,0,0,0,1,0,0l-.06,0-.39-.34a1.88,1.88,0,0,1,.32.23,3.63,3.63,0,0,0-.57-.44c-.61-.5-1.23-1-1.87-1.43,0,0-.22-.21,0-.13a16.54,16.54,0,0,0,1.44,1.18l1.1.88a.72.72,0,0,1,.11-.24h0c-.43-.35-.74-.65-1-.93a4.2,4.2,0,0,0-1.52-.94L44,6.79c-.63-.52-1.43-.62-2.05-1.22l0,.11c-.19-.11-.25-.19-.45-.3l.06.08a7.42,7.42,0,0,1-1.36-.7c0-.07.26.09.42.16a7.29,7.29,0,0,0-1.08-.44c-.3-.19,0-.08.09-.08l-.19-.08-.08.06a2.44,2.44,0,0,0,.82.42,5.53,5.53,0,0,1-.84-.21.75.75,0,0,1-.09.23c-.19,0-.09-.13-.06-.23v0l-.69-.3a.43.43,0,0,1-.26.22.55.55,0,0,1,0-.32l-.54-.21.56.16a1.06,1.06,0,0,1,.11-.24,3.82,3.82,0,0,0-1.52-.38c-.11,0,.3.21-.17.08l.24.1-1.12-.35c.45.08,1.07.17.52-.1h-.19c-.85-.13-.56-.29-1.21-.5-.8-.15-1.3,0-2-.16-.31,0-.25-.1-.15-.14a6.73,6.73,0,0,0-1.5,0c-.07-.28-.62-.3-1.28-.27a6.72,6.72,0,0,1-2-.06,15.82,15.82,0,0,0-2.41.26c.44-.19-.8.08-.63-.09-.1.17-.71.23-1.3.31s-1.18.2-1.21.42c-.57.08-.58.09-.61.11a4.58,4.58,0,0,1-.74.17S21.36,3.2,21.44,3.18Zm-2.77,1.6c-.47.51-.47.12-1.33.66a5.69,5.69,0,0,1,.72-.53h0c.53-.24,1.06-.46,1.6-.65-.4.17-.77.38-1.16.59Zm3.07-1.14,0,0,.16,0Zm-.46,49.93a3.5,3.5,0,0,1,.5.07s0,0-.06.05ZM5.47,16.07h0l0,.07A.28.28,0,0,0,5.47,16.07Zm-.2.39L5,16.95s0,0-.11.09A1.46,1.46,0,0,1,5.27,16.47Zm-2,6.4a.17.17,0,0,1-.19.11C3,22.78,3.17,22.79,3.26,22.87ZM2.88,34c.14,0,.08.11.19.12S2.83,34.16,2.88,34Zm.18.91c0,.13.06.26.1.38l0,0ZM6.8,43.56c0-.05-.06-.11-.1-.18.12.13.17.15.18.11l.21.3c-.05,0-.1-.05-.1,0S6.86,43.65,6.8,43.56Zm.8.74v-.12c.1,0,.11.06.19.06v.11C7.69,44.37,7.68,44.3,7.6,44.3ZM8.69,46a2.83,2.83,0,0,1,.25.17l0,0a.56.56,0,0,1,.1.18A1.46,1.46,0,0,1,8.69,46Zm1.17,1.37c.06-.1.15-.17.19-.29.12,0,.17.15.19.29C10.1,47.35,10,47.44,9.86,47.33Zm2,1.71c-.06-.17.14-.1.25-.11S12,49.07,11.82,49Zm.2.07.08,0,.19.15A2,2,0,0,1,12,49.11Zm.3.39c0-.1.08-.12.07-.23a.46.46,0,0,1,.12.34C12.43,49.6,12.41,49.52,12.32,49.51Zm6.36,3.56v-.11h.13v.11Zm8.06,1.83c0-.13,0-.15.06-.23S26.91,55,26.73,54.9Zm2.77,0v-.12c.05,0,.06,0,.06-.05S29.66,55,29.5,54.9Zm2.39-.46v0l.32,0c0,.07,0,.13,0,.18C32,54.59,32.09,54.4,31.89,54.44Zm1-.17a.93.93,0,0,0-.12.36l-.33,0s0-.08.07-.13.15,0,.18-.06,0-.16.05-.21h.14Zm2.66-.17h0v0a0,0,0,0,0,0,0s0,0,0-.07h0a.25.25,0,0,1,.13,0l-.07,0,.38-.11A2.19,2.19,0,0,1,35.56,54.1Zm5.34-2.3c0,.12-.09.11-.19.11s.07-.05.07-.11ZM42.28,51c0-.14,0-.25.19-.23C42.44,50.88,42.44,51,42.28,51Zm2.62-2.13-.19.15a2,2,0,0,1,.23-.22A.16.16,0,0,0,44.9,48.87Zm.15-.16c-.08-.23.18-.14.19-.29C45.37,48.47,45.22,48.74,45,48.71Zm5-5.4-.2.29c0-.06,0-.11,0-.09l.15-.25.13-.15C50,43.24,50,43.3,50.05,43.3Zm1.42-1.87c-.2-.14.22-.24,0,0ZM52.79,38l0,0,.11-.26C53,37.78,52.8,37.93,52.79,38Zm.62-1c-.08.15-.13.18-.31.11C53.09,37,53.33,36.93,53.42,37Zm.32-1.78h0l.13-.35ZM54.8,26.1a.21.21,0,0,1-.31,0c0-.11.17-.25.29-.26S54.79,26,54.8,26.1Zm-2.93-9s0,0,0,.14a1.35,1.35,0,0,1-.24-.6Zm-.44-.85,0,.08-.05-.08Zm-4-5.81a.55.55,0,0,1,0,.31,2.24,2.24,0,0,1-.28-.29v0ZM46.26,9.7l-.07-.07S46.26,9.67,46.26,9.7ZM42.18,5.83c.2.26.38.15.76.47.09.2-.39-.12-.59-.17l.54.25a1,1,0,0,1,.45.45c-.36-.24-.73-.48-1.1-.7h0a2,2,0,0,0-.47-.27l-.05,0-.11-.08A1.12,1.12,0,0,0,42.18,5.83Zm-4.93-2.1c0,.14-.1.18-.12.29C37,4,37.06,3.66,37.24,3.73Zm-1.66-.51,0,0-.18,0Zm-1.47,0h-.17l-.62-.16Zm-3.16-.62c0,.08-.13.11-.25.12,0-.16.13-.12.13-.23S30.87,2.64,30.95,2.64Zm-2.43-.31a10.5,10.5,0,0,0-1.22,0c.22-.05,0-.12.35-.14.85,0,1.29.1,2.14.07l0,.09c-.38,0-.76,0-1.14,0Zm-5.33.51c.2,0,.47-.07.65-.09L23,2.92Zm13.23,51-.11,0h0ZM26.31,55ZM49.1,12.14h0l.05.07ZM23.84,7.48h0l-.2.08Zm.33-.16ZM13.71,12l-.23.2Zm.24.17a.36.36,0,0,1,0,.18h0s0,0,0,.07a1.79,1.79,0,0,0,.21-.28l.09-.08.13-.08a.07.07,0,0,1,0,0,10.26,10.26,0,0,0-.75.77c.09-.11,0-.13.13-.26h0c-.14.15-.32.39-.27.44a15.89,15.89,0,0,1-1.5,1.52l.18-.08c-.22.49-.93.94-1.39,1.76v0c-.15.26-.11.59-.44,1,0-.18.15-.42,0-.46-.11.25-.21.51-.32.76-.14.08-.51.93-.48.62-.1.5-.7,1.37-.31,1.12a18.87,18.87,0,0,1,2.08-3.47,35.29,35.29,0,0,1,2.84-3.29l-.26.37c.1-.13.2-.23.3-.34s0-.24.15-.21a.21.21,0,0,1,0,.07h0a6.73,6.73,0,0,1,.8-.61,4.28,4.28,0,0,0,1.07-1V11c.56-.32.89-.94,1.59-1.1l-.1,0c.15-.09.24-.1.4-.19H18a3.27,3.27,0,0,1,1.1-.59c.06,0-.19.12-.31.2a2.8,2.8,0,0,0,.65-.38h0a.12.12,0,0,1,0-.06,2.08,2.08,0,0,0-.34.2,4.39,4.39,0,0,1,.6-.48h0c.39-.18.79-.35,1.2-.5h0c-.29.14-.58.31-.87.48l.1-.05v0l.07,0-.07.09a.24.24,0,0,1,0,.15h0c.35-.15.65-.25.92-.36,0-.2.09-.34.3-.36,0-.18.18-.23.25-.35a.62.62,0,0,1,.21.12h-.07l.83-.25c-.34.16-.75.38-.26.33l.13-.1c.65-.3.53,0,1.06-.11l.18-.06c0-.1,0-.22.19-.16a.37.37,0,0,1,0,.08l.33-.16-.15,0s.26-.22.13-.17c.05,0,.09-.05.12.06s-.07-.38.19-.29a.57.57,0,0,1,0-.17l-.56.11L24,6.79l.41-.06h0a.5.5,0,0,1,0-.16h0c-.51.07-1,.17-1,.38a9.44,9.44,0,0,0-1.14.23s.17-.1.24-.13c-.46,0-.61.36-1,.3-.7.22-.35.19-.43.31l-.79.3c-.2,0-.24,0-.58,0,0,.2-.55.35-.92.64l0,0-.45.23a2.2,2.2,0,0,0,.4-.34A12.56,12.56,0,0,0,16.36,10c-.45.27.17-.23-.19,0a6.53,6.53,0,0,0-1.34,1.15l-.24.19-.1.07,0-.19a4.62,4.62,0,0,1-.79.74A.44.44,0,0,1,14,12.15ZM20.5,8.49a.67.67,0,0,1,0-.24l.25-.13A.25.25,0,0,1,20.5,8.49Zm2.31-1.06.13,0-.14.08ZM20.63,8a.3.3,0,0,1,.13.13l-.23.09C20.56,8.11,20.59,8,20.63,8Zm-2.33.92h.32v.17C18.44,9.06,18.27,9.06,18.3,8.89Zm-1,.86-.12.14a1.94,1.94,0,0,0,.41-.25.85.85,0,0,0-.16.3c-.29,0-.26.23-.62.38-.18,0,.22-.27.32-.4l-.37.32a.8.8,0,0,1-.5.18C16.64,10.18,17,10,17.35,9.75Zm-2.6,1.82c.44-.35.88-.69,1.34-1,.06,0,.21-.09.1.09a5.41,5.41,0,0,0-1.3.85l-.3.26Zm.15,0c.18,0-.08.14,0,.29C14.75,11.8,14.86,11.56,14.9,11.52ZM13.71,12l0,0h0Zm24.82-7.8.45.13-.21-.08a.93.93,0,0,1,.48.08h0l.08,0C39,4.16,38.8,4,38.58,4A.72.72,0,0,1,38.53,4.18ZM7.69,40.88l-.12-.14A.88.88,0,0,0,7.69,40.88ZM4.27,18c.09-.26.28-.56.24-.63s-.07,0-.14.18l0-.38C4.21,17.51,4.16,18,4.27,18Z"/></g></g></svg>