<svg xmlns="http://www.w3.org/2000/svg" viewBox="0 0 30.4 29.91"><defs><style>.cls-1{fill:#fff;fill-rule:evenodd;}</style></defs><title>plane_icon</title><g id="Layer_2" data-name="Layer 2"><g id="Layer_1-2" data-name="Layer 1"><path class="cls-1" d="M6.52,23.19a9.64,9.64,0,0,1,1.43,4l1.15,1.2,1.74-1.66a17.93,17.93,0,0,0-.46-5.18c2.47-2.31,5-4.57,7.61-6.83a60.42,60.42,0,0,1,5.22,14.07c.42,1.94,2.78,1.17,2.69-.42L24.29,9.44c1.84-1.75,3.56-4,5.2-5.79C30.05,3,30.94,1.74,30,.56s-2.7-.08-3.36.37a46.09,46.09,0,0,0-6.2,4.82L2.13,3.39C.46,3.28-1,5.54.83,6a59.92,59.92,0,0,1,14.24,5.76c-2.35,2.46-4.69,5-7,7.55a19,19,0,0,0-4.8-.61L1.49,20.35l1.14,1.21A9.55,9.55,0,0,1,6.52,23.19Z"/></g></g></svg>