<svg xmlns="http://www.w3.org/2000/svg" viewBox="0 0 424.39 125.61"><defs><style>.cls-1{fill:#cf0a2c;}.cls-2{fill:#8b8d8f;}.cls-3{fill:#fff;}.cls-4{fill:#010101;}</style></defs><title>TTR</title><g id="Layer_2" data-name="Layer 2"><g id="Layer_1-2" data-name="Layer 1"><path class="cls-1" d="M71.31,50.72,70.07,31l-28.68,1.8.38,6.13,15.93-1,.17,2.61c.21,3.48-2.39,5.31-6,5.54L33.94,47.16c-5.51.36-5.51-3.57-5.66-5.93l-.62-8.77c-.14-2.23-.92-5.82,3.94-7.27a11.07,11.07,0,0,1,1.77-.28L69.7,22.61l-.39-6.27L25.68,19.09c-10.29.65-15.4,9.37-14.81,18.62.56,9,5,16.51,16.49,15.78Zm123.54-7.78-.41-6.51-33.53,2.12c-5.23.23-4.87-3-5-5.35l-.61-8.78c-.14-2.25-.86-5.86,3.52-7.27a6.63,6.63,0,0,1,1.27-.23l33-2.08-.39-6.28-40.91,2.58c-9.11.57-13.57,9.26-13,18.53.56,9,4.53,16.52,14.72,15.88ZM93.6,49.32,92,24.2l24.78,23.65,16.18-1-2.16-34.38-13.36.84,1.64,26L93,14.85l-15.09,1L80,50.18Z"/><path class="cls-2" d="M13.41,115.43c-.09-1.72.09-3.36,0-5.44-.28-5.25-1-10.84-1.32-16.18-.34-6.43-.49-12.5-.81-18.66-.11-2-.77-4.22-2.76-4-1.71.18-3.54,0-5.26.1-1.9.1-3-.93-3-2.38A20.79,20.79,0,0,1,0,65.5c.1-1.55.78-2.4,2-2.47,3.35-.09,5.51-.57,8.41-.63,3.35-.09,6.77-.72,10.14-.54a53,53,0,0,0,7.6-.4c1.35-.16,1.87,1.08,2,2.07.29,2-.31,2.74-.4,4.38,0,1.18-1.08,1.78-2.26,1.85-1.81.1-3.72,0-5.52.29a2,2,0,0,0-2,2.1c.19,3.53.72,6.59.45,10.14-.33,4,1.2,10.65,1.16,16.64-.06,3.91.7,8,.62,11.68-.12,4.55.82,8.49.67,12.58a2.39,2.39,0,0,1-2.23,2.39,46.43,46.43,0,0,1-4.82-.11,2,2,0,0,1-1.73-1.9c-.08-1.45-.65-7-.71-8.13m1.8,6.44a1.47,1.47,0,0,0,1.4-1.07c.15-.55-.33-1.16-.68-.78-.77.86-1.24.61-1.2,1.43,0,.36,0,.45.48.43"/><path class="cls-2" d="M39.64,105.23c-.15-1.17,0-2.27-.17-4.89-.11-2.08-.6-6.14-.71-11.67,0-4.26-1-8.39-.75-12.4,0-.82-.47-5.42-.5-5.87-.13-2.44,0-4.72-.08-6.62a2.82,2.82,0,0,1,2.66-3,17.93,17.93,0,0,1,3.81-.11c1.9,0,2.77.85,2.86,2.57.11,3.71.4,7.42.59,11.13a26.65,26.65,0,0,1,0,4.08C47.3,82,48.45,90.05,48.45,96.86a85.61,85.61,0,0,0,.89,13.3,9.15,9.15,0,0,1,.05,2.72c-.15,2.28.53,4.87.42,7.78-.07,2.09-.74,3.13-3,3.25-1,.05-2.1-.16-3.09,0-1.8.28-2.85-.67-3.15-2.92-.56-3.6-.17-10-.93-15.74m6.82,7c.63,0,.8-.31.77-.86a.87.87,0,0,0-1-.94.81.81,0,0,0-.77.86.9.9,0,0,0,1,.94"/><path class="cls-2" d="M58.2,95.79a87.19,87.19,0,0,1-.28-12,32.26,32.26,0,0,0-.79-4.59c-.29-5.52-.06-9.62,1-12.67A18.93,18.93,0,0,1,59.59,64c2-3.29,7.06-5.55,10.95-5.76,7.88-.42,12.74,5.76,14.15,10A23.77,23.77,0,0,1,86,76.7a2.22,2.22,0,0,1-2.23,2.48c-1.26.16-2.41.86-3.67.92-1.9.1-2.68-.95-2.75-2.21a30.15,30.15,0,0,0-.58-5.69c-1-4-3.36-5.18-5.54-5.06-7,.37-4.94,9.53-4.56,16.49.11,2.08.4,4.06.33,6.16-.2,6.46,1,12.83,1.16,18.36,0,4.27,2.63,6.76,5.71,6.6a5.6,5.6,0,0,0,5.12-6.08c-.12-2.26,0-4.63-.1-6.89-.1-1.81.68-2.58,1.77-2.64.72,0,6.48-1.07,6.64,1.91l.24,4.44a25.66,25.66,0,0,1-.49,7.74c-1.42,7.43-6.66,9.61-12.72,9.94a15.24,15.24,0,0,1-7.62-1.68c-1.68-.82-3.31-.82-4.53-3.3s-2.71-4.94-3.18-8.54c-.73-5.23-.28-8.61-.74-13.85m19.41,21.84c-.63,0-2.35.22-2.32.76s.22.8.68.78c.81,0,2.16-.3,2.12-1.11,0-.36,0-.45-.48-.43"/><path class="cls-2" d="M92.69,97.49c-.49-11-1.32-14.45-1.27-18.72,0-3.27-.61-11.4-.63-11.86,0-.81,0-5.9-.09-6.71-.05-1,.42-2.38,3.13-2.53.81,0,1.92.17,2.73.12,2.9-.16,3.49.81,3.57,2.17.09,1.63-.34,2.11-.29,3.1.12,2.17.73,3.5.85,5.76.27,5,.18,6.8.63,11.86,0,.81.25,1.35,1.07,1.3,1-.05,1.64-1.63,2-2.28l4.19-9.85c1.46-3.35,2.44-7.12,4.13-11.11a3.07,3.07,0,0,1,3.06-2.25c.36,0,3.09.11,3.73.07,1.09-.06,2.27.06,2.35,1.42a6.19,6.19,0,0,1-.48,2.93c-1.36,3.43-3,6.42-4.28,10-1.18,3.33-2.74,6.41-4,9.56-.8,1.95-2,4.56-.39,8,.72,1.5,1.1,3.57,2.48,5.68s1.87,4.44,2.79,6.3c2.35,4.87,4.39,9.11,6.57,14.17.83,2,1.25,4.65-1.92,4.82-1.09.06-3,.8-4.88.35-2.21-.61-2.52-4.76-3.24-6.27s-2.15-2.88-3.16-4.82c-1.72-3.27-3-7-4.56-10.56A2,2,0,0,0,105,96.84c-1.9.1-2.87,4-2.79,5.59a50.78,50.78,0,0,1,.34,6.43,44.06,44.06,0,0,0-.1,5l.22,4.16c.09,1.72-.94,2.77-2.93,2.88-.9,0-1.8.37-2.7.42a2.84,2.84,0,0,1-3.25-3c.12-6.27-.78-12.94-1.11-20.82m.65-25.27a.66.66,0,0,0,.69-.76c0-.27-.12-.63-.58-.6a.57.57,0,0,0-.6.67c0,.45.22.72.49.7"/><path class="cls-2" d="M130.15,112.2c-.2-3.71-.21-7.34-.4-10.78-.85-16-.48-17.49-.5-17.95-.14-2.72-.65-5.41-.84-8.85,0-.63-.59-6-.63-6.68-.08-1.45-.07-3-.18-5-.07-1.27-.23-2.53-.29-3.71A2.88,2.88,0,0,1,130,56c1.54-.08,4.05-.58,5.23-.64.81,0,3.64.08,4.09.05,4-.21,7.14-.65,11.13-.59,1.82,0,2.4.69,2.59,2.59a23.86,23.86,0,0,1,.53,3.15c.05,1-.23,2.55-1.67,2.72-6.31.79-8,.43-11.84,1-3.25.45-3.31,2.72-3.18,5.07.08,1.45.44,3.06.5,4.33.11,2.08.31,4.16.33,6.25,0,2.45.69,2.69,5.39,2.44.9,0,3,0,3.81,0s1.53-.26,2.25-.3c2.81-.15,2.51,2.77,2.57,3.86.15,2.9.61,4.6-2.11,4.74-1.08.06-2.54,0-3.72.11a35.06,35.06,0,0,1-5.34.28c-1.18,0-1.78.64-1.73,1.64.12,2.17-.13,4.27.08,6.62.42,4.52.54,6.6.62,8.23a2.63,2.63,0,0,0,2.77,2.48c1.81-.19,3.54,0,5.34-.29a44,44,0,0,1,4.89-.26c1.81-.1,3.64.26,3.76,2.43.07,1.27-.4,2.65-.32,4.1a2,2,0,0,1-2,2.19c-2.71.33-5.45,0-8,.34-3.52.46-7.14.47-10.67.66-2.35.13-4.76-.65-4.88-3-.1-1.81-.21-2.26-.3-4m4.73,3.56c-.63,0-.87.68-1.21,1.15s0,.72.49.7a1.22,1.22,0,0,0,1.2-1.42c0-.36,0-.45-.48-.43"/><path class="cls-2" d="M169.58,107.73c-.14-2.62-.17-4.8-.32-7.61-.07-1.27.59-2.48.52-3.93,0-.63-.68-2.5-.73-3.41-.22-4.07-.72-8.41-.9-11.75-.1-1.81.31-2.74.23-4.19-.34-6.43-.73-8.68-.8-9.85s.05-4.09-2.21-4c-6.07.33-8,.7-8.07-1.56-.07-1.27-.5-2.52-.56-3.78-.2-3.8,1.37-3.16,8.89-3.56,1.09-.06,8.5-.54,9.77-.61,2.81-.15,1.84.45,4.46.31,1.54-.08,1.88-.46,4.78-.62,1.63-.09,2.12.61,2.29,3.87.25,4.62-1.21,4.51-9.18,4.94-1.9.1-1.28,5-1.14,7.59.07,1.27.22,2.44.79,13,.1,1.81-.31,2.65-.21,4.55.06,1.18.66,2.14.86,4.13.74,7.13.87,14.57,1.16,21.73.14,2.71-.52,3.84-2.24,3.93-1.27.07-1.89.28-3.7.38-2.08.11-2.78-1-2.87-2.75,0-.54-.75-5.59-.82-6.86m7-15.26c-.45,0-.86,1-.85,1.13,0,.45.13.72.49.7.72,0,.77-.77.74-1.49,0-.27,0-.36-.38-.34"/><path class="cls-2" d="M213.57,105.38c-.14-2.62-.17-4.8-.31-7.61-.07-1.27.59-2.48.52-3.93,0-.63-.68-2.5-.73-3.41-.22-4.07-.72-8.4-.9-11.75-.1-1.81.31-2.74.23-4.19-.34-6.43-.73-8.68-.8-9.85s.05-4.09-2.21-4c-6.07.32-8,.7-8.07-1.56-.07-1.27-.5-2.52-.56-3.78-.2-3.8,1.37-3.16,8.89-3.56,1.09-.06,8.5-.54,9.77-.61,2.81-.15,1.84.45,4.46.31,1.54-.08,1.88-.46,4.78-.62,1.63-.09,2.12.61,2.29,3.87.25,4.62-1.21,4.52-9.18,4.94-1.9.1-1.28,5-1.14,7.59.07,1.27.22,2.44.79,13,.1,1.81-.31,2.65-.21,4.55.06,1.18.66,2.14.86,4.13.74,7.13.87,14.57,1.16,21.73.14,2.71-.52,3.84-2.24,3.93-1.27.07-1.89.28-3.7.38-2.08.11-2.78-1-2.87-2.75,0-.54-.75-5.59-.82-6.86m7-15.26c-.45,0-.86,1-.85,1.13,0,.45.13.72.49.7.72,0,.77-.77.74-1.49,0-.27,0-.36-.38-.34"/><path class="cls-2" d="M236.6,94.71c-.07-1.27,0-2.18-.08-3.26s-.58-2.42-.71-4.86-.06-8-.27-11.88c-.07-1.27-.23-2.62-.39-3.88-.54-5-.65-8.86,1.44-13.88,2.42-5.67,6.12-7.77,11.37-8.05,2-.11,7.83.49,8.88,3.16a3.21,3.21,0,0,0,2,2.16c2.15,1.16,2.3,2.24,3.27,5.18A32.43,32.43,0,0,1,263.91,69c.18,3.35.15,4.53.3,7.25.2,3.71.75,10.58,1,15.74.29,5.52.57,12.32-3.25,17.33-2.29,3-7.85,4.23-10.57,4.38-7.24.39-12.3-4.16-13.81-10.34a46,46,0,0,1-1-8.66m2.71,9.84a.51.51,0,0,0,.42-.57.78.78,0,0,0-.76-.69c-.27,0-.26.19-.25.47,0,.54.13.81.59.79m13.83.63c1.45-.08,3.38-3.09,3.48-4.63a43.77,43.77,0,0,0-.19-6.89c-.16-1.26.51-2.3.46-3.38s-.66-2.14-.82-3.5c-.19-1.81-1.08-11.65-1.18-13.64-.12-2.26.09-5.18,0-7.53-.17-3.17-1.42-7.82-5.85-7.58-2.81.15-4.41,2.5-4.45,5-.07,5.45,1.1,12.11.8,16.66-.22,2.73.22,5.89.43,9.78.05,1,.38,2.07.44,3.06.14,2.63-.48,4.56.15,8,.63,3.23,3.25,4.82,6.78,4.63"/><path class="cls-2" d="M284.78,94.31c-.05-1-.19-1.89-.24-2.8-.09-1.72.09-3.36,0-4.9,0-.36-.46-5.15-.67-9-.08-1.45-.06-2.9-.06-4.44,0-3.54-.67-7.5-.71-11.58,0-3.27-.06-6.26-.23-9.34-.13-2.44.6-4.12,4.74-4.7,3.24-.44,6.8-.18,10.32-.55a20.35,20.35,0,0,1,5.85.78,13.21,13.21,0,0,1,8.31,11.08c.17,3.08.86,5.95.48,9-.39,2.84-.8,5.49-2.3,8-.66,1.22-2,2.56-2,3.65s1.25,1.39,2.63,3.4c1.77,2.54,2.58,7.58,2.74,10.47.19,3.53.41,5.88.58,9.14l.14,2.71c.06,1.09,1.3,2.2.82,3.5s-4.38,1.23-5.56,1.3c-3.89.21-4.12-2.41-4.25-4.77-.75-14-1-21-8-20.63-2.26.12-3.62.28-3.51,2.28.23,4.26-.19,8.27.39,12.41a76.11,76.11,0,0,1,.72,8.4c.13,2.54-1.47,3.17-5.18,3.36-2.08.11-4-.6-4.31-2.49-.61-4.69-.33-9.51-.76-14.21m.43-19.18c.63,0,1.18-.06,1.13-1,0-.45-.59-.78-1.22-.75s-.52.39-.5.84c0,.91,0,.91.59.88m12,2.17a6.54,6.54,0,0,0,2.84-1.15c3.85-2.75,3.27-5.08,3.41-9.26,0-.36.36-1.83.32-2.47-.16-2.9-.87-9.39-5.84-9.13-4.53.24-5.5.66-5.52,3.74,0,2.45-.28,4.92.22,7.43.51,2.7.29,5.43.62,8.14.19,1.9,1.15,2.84,4,2.69"/><path class="cls-2" d="M320,92.34c-.05-1,.26-1.92.21-2.91-.07-1.27-.48-2.24-.86-9.39-.41-7.69-.21-9.07-.28-10.24-.17-3.26-.62-6.5-.79-9.76-.46-8.6,3.66-14.72,10.27-15.07,2.17-.12,2.86-.88,5-1a11.15,11.15,0,0,1,7.64,2c4.27,3.4,6.21,7.48,6.2,12.38,0,5.35,1,10.66.94,15.93-.08,7,1.1,12,1,20.82a17,17,0,0,1-4.17,10.39c-2.41,2.49-6.62,3.62-10,3.8-6.07.32-13.43-3.37-14.53-10.39-.4-2.43-.64-5.23-.71-6.5m8.78-.56c.25,4.71,1.13,9.2,6.19,8.93,3.71-.2,5.17-3.45,5-6.62-.23-4.35-.82-8.58-1.05-12.93A6.73,6.73,0,0,1,339,78.8c.77-2.49.06-3.91,0-5.9-.38-7.15-.55-12-.61-13.13-.19-3.62-1.78-7.8-6-7.57-3.8.2-5.6,4-5.41,7.55.23,4.25.55,8.6.79,13a58.35,58.35,0,0,1,.62,6.41c.26,4.89-.51,5.84-.44,7,0,2.36.74,3.59.84,5.58M341,81.6a1.1,1.1,0,0,0,.68-.94.92.92,0,0,0-.87-1c-.46-.07-.81,0-.77,1s.42,1.15,1,.95"/><path class="cls-2" d="M354.47,87.14a14.9,14.9,0,0,0,.44-2c-.08-1.45-.59-2.51-.75-3.77-.28-1.8-.38-3.7-.48-5.51-.12-2.26-.24-4.44-.32-6.07s.16-3.73.11-4.82c-.23-4.25-.44-6.51-.31-7.52.94-6.13,2-11.18,8.26-13.7a13.23,13.23,0,0,1,4.11-1.22c12.4-.66,16,7.77,16.49,16.46.14,2.62.3,5.52-3.05,5.7a7.66,7.66,0,0,1-3.55-.17,2.56,2.56,0,0,1-2.12-2.34c-.14-.9-.64-1.69-.67-2.41-.18-3.44-.53-8.23-5.24-8-6.7.36-4.48,11.22-4.19,16.83.09,1.63.35,3.25.44,4.79s0,2.54,0,4c.29,5.52.52,13.22,1,16.47a5.28,5.28,0,0,0,5.5,4.34c2.9-.16,4.4-2.69,4.25-5.31-.1-1.9-.37-3.52-.46-5.15-.21-3.89.16-5.46,4.06-5.66,1.9-.1,4.43-.33,5,1.91a31.78,31.78,0,0,1,.58,5.87c.32,6.07-1.3,14.69-8.65,16.53a26,26,0,0,1-6.11,1.14,18.06,18.06,0,0,1-7.65-2.13,11.63,11.63,0,0,1-5.6-8.05c-.62-3.05-1.14-6-1.19-7a12.89,12.89,0,0,1,.1-3.18M359.09,75c.45,0,.62-.3.59-.85s-.87-1-1.5-.92c-.45,0-.45.11-.43.48A1.22,1.22,0,0,0,359.09,75"/><path class="cls-2" d="M390.26,96c-.06-1.18.34-2.2.23-4.28s-1-8-1.13-11c-.08-1.45-.11-3.81-.19-5.34,0-.91.5-2.57.4-4.47s-.72-3.23-1-5.57c-.44-3.06.13-6-.64-10.31-.4-2.34-.34-8.06-.43-9.78a2.79,2.79,0,0,1,2-3.19,16.53,16.53,0,0,1,3.7-.38c1.54-.08,3,.74,3.11,2.1a16.17,16.17,0,0,1,.36,3.25,16.46,16.46,0,0,0,.25,4.8,60.65,60.65,0,0,1,.7,8,23.79,23.79,0,0,0,.27,5.07c.24,1.08.63,1.69,1.27,1.66.81,0,1.48-1.26,1.71-2,1.41-4.25,1.8-5.45,2.23-5.93.26-.29.61-.49.78-.68.43-.48.1-1.55,1-3.5a52.32,52.32,0,0,0,2.1-4.83,71.86,71.86,0,0,1,2.92-6.6,4.24,4.24,0,0,1,2.42-2.22c1.51-.54,3.35-.09,4.89-.17a1.54,1.54,0,0,1,1.72,1.63c.08,1.54-1.13,4.33-1.61,5.44l-6.33,14c-.41.84-1.31,4.34-1.87,5.82-1.28,3.25.67,7.41,2.09,10.24,2.23,4.42,4.33,8,5.5,11.24,1.5,4.28,3.06,6.37,3.89,8.32.94,2.22,1.46,3.55,1.33,4.47-.23,2.55-3.52,2.09-6.23,2.24-3,.16-3.66-2.17-4.6-4.57-.53-1.42-1.42-2.74-2-4.25-1.58-4.09-3.66-7.34-5.17-11.89-.33-1.16-.95-2.4-1.94-2.35-1.45.08-2.93,2.88-3,4.16-.08,1.91-.06,3.91,0,5.45.05,1,.52,4.6.68,7.59a29.37,29.37,0,0,1,.17,4.89c-.31,2.65-4.41,2.41-5.77,2.49s-3.21-.56-3.35-3.27c-.07-1.27-.28-3.52-.42-6.24m4.43-.24c.36,0,.54-.12.52-.48a.48.48,0,0,0-.57-.52.43.43,0,0,0-.43.48c0,.45.21.53.48.52"/><path class="cls-3" d="M318.37,1.92a6.22,6.22,0,0,1,.64.8c-.07,0-.62-.14-.62-.14a2,2,0,0,0-.62-.73s.39-.15.6.08"/><path class="cls-3" d="M317.45,1.82a2.36,2.36,0,0,1,.67.77,15.71,15.71,0,0,0-1.87.2,7.62,7.62,0,0,1-1-.65s1.74-.26,2.25-.31"/><path class="cls-3" d="M315.94,2.87a11.61,11.61,0,0,0-1.45.41,5.36,5.36,0,0,1-1.16.23,3,3,0,0,1,.41-1.37c.08,0,.72-.16.72-.16s1.48.89,1.48.89"/><path class="cls-3" d="M313.45,2.18a4.34,4.34,0,0,0-.37,1.37l-1.3.34V3.48l.88-1.07s.47-.15.8-.23"/><path class="cls-3" d="M300.34,6.4s0,0,0,0l-.11,1a.12.12,0,0,1-.06.07l-.31.11s-.05,0,0,0l.12-1A.08.08,0,0,1,300,6.5Z"/><path class="cls-3" d="M299.34,6.81s0,0,0,0l-.11,1a.1.1,0,0,1-.06.07l-.31.11s0,0,0,0L299,7A.09.09,0,0,1,299,6.9Z"/><path class="cls-3" d="M298.35,7.21s0,0,0,0l-.11,1a.1.1,0,0,1-.06.07l-.31.11s0,0,0,0l.12-1a.1.1,0,0,1,.06-.07Z"/><path class="cls-3" d="M297.35,7.62s0,0,0,0l-.12,1a.09.09,0,0,1-.06.07l-.3.11s-.05,0-.05,0l.12-1a.09.09,0,0,1,.06-.06Z"/><path class="cls-3" d="M296.36,8s0,0,0,0l-.12,1a.09.09,0,0,1-.06.07l-.31.11a0,0,0,0,1,0,0l.12-1a.1.1,0,0,1,.06-.06Z"/><path class="cls-3" d="M295.36,8.43s.05,0,0,0l-.11,1a.09.09,0,0,1-.06.07l-.3.11s-.05,0,0,0l.12-1a.09.09,0,0,1,.06-.07Z"/><path class="cls-3" d="M294.37,8.84s.05,0,0,0l-.12,1a.08.08,0,0,1-.06.07l-.31.11s0,0,0,0L294,9a.08.08,0,0,1,.06-.07Z"/><path class="cls-3" d="M293.38,9.25s0,0,0,0l-.11,1a.09.09,0,0,1-.06.07l-.31.11s0,0,0,0l.12-1a.09.09,0,0,1,.06-.07Z"/><path class="cls-3" d="M292.38,9.66s.05,0,0,0l-.11,1a.1.1,0,0,1-.06.07l-.31.11s0,0,0,0l.12-1a.08.08,0,0,1,.06-.06Z"/><path class="cls-3" d="M286.77,12.47s.05,0,.05,0l0,1a.08.08,0,0,1-.05.07l-.29.14s-.05,0,0,0l0-1a.09.09,0,0,1,.05-.07Z"/><path class="cls-3" d="M285.91,12.82s.05,0,.05,0l0,1a.1.1,0,0,1-.05.07l-.29.14s-.05,0-.05,0l0-1a.1.1,0,0,1,.05-.07Z"/><path class="cls-3" d="M284.2,13.63s.05,0,.05,0l0,1a.1.1,0,0,1-.05.07l-.3.14s-.05,0,0,0l0-1a.09.09,0,0,1,.05-.07Z"/><path class="cls-3" d="M282.42,14.35s.05,0,.05,0l0,1a.1.1,0,0,1-.05.07l-.29.13s0,0,0,0l0-1a.09.09,0,0,1,.06-.07Z"/><path class="cls-3" d="M281.45,14.77s.05,0,.05,0l0,1a.09.09,0,0,1-.05.07l-.29.14s0,0,0,0l0-1a.09.09,0,0,1,.05-.07Z"/><path class="cls-3" d="M280.48,15.21s0,0,0,0l0,1a.09.09,0,0,1-.05.07l-.3.14s0,0,0,0l0-1a.09.09,0,0,1,.06-.07Z"/><path class="cls-3" d="M279.47,15.55s.05,0,0,0l0,1a.09.09,0,0,1-.05.07l-.3.14s0,0,0,0l0-1a.09.09,0,0,1,.05-.07Z"/><path class="cls-3" d="M278.51,16s0,0,0,0l0,1a.1.1,0,0,1-.05.08l-.3.14s0,0,0,0l0-1a.09.09,0,0,1,.06-.07Z"/><path class="cls-3" d="M277.55,16.47s.06,0,.05,0l0,1a.09.09,0,0,1-.05.07l-.29.14s-.05,0-.05,0l0-1a.09.09,0,0,1,.05-.07Z"/><path class="cls-3" d="M276.59,16.92s.06,0,.06,0l0,1a.09.09,0,0,1-.05.07l-.29.14s-.05,0-.05,0l0-1a.09.09,0,0,1,.05-.07Z"/><path class="cls-3" d="M275.63,17.38s0,0,0,0l0,1a.09.09,0,0,1-.05.07l-.29.14s-.05,0-.05,0l0-1a.09.09,0,0,1,.05-.07Z"/><path class="cls-3" d="M274.67,17.84s.05,0,.05,0l0,1a.1.1,0,0,1-.05.07l-.29.14s-.05,0,0,0l0-1a.09.09,0,0,1,.05-.07Z"/><path class="cls-3" d="M273.71,18.29s0,0,0,0l0,1a.09.09,0,0,1-.05.07l-.3.14s0,0,0,0l0-1a.09.09,0,0,1,.05-.07Z"/><path class="cls-3" d="M272.71,18.72s.05,0,.05,0l0,1a.1.1,0,0,1-.05.07l-.3.14s0,0,0,0l0-1a.09.09,0,0,1,.05-.07Z"/><path class="cls-3" d="M271.72,19.14s0,0,0,0l0,1a.09.09,0,0,1-.05.07l-.29.14s-.05,0-.05,0l0-1a.09.09,0,0,1,.05-.07Z"/><path class="cls-3" d="M250.55,28.37s0,0,0,0l-.08,1a.1.1,0,0,1,0,.07l-.25.12s0,0,0,0l.08-1a.1.1,0,0,1,0-.07Z"/><path class="cls-3" d="M249.65,28.76s0,0,0,0l-.09,1a.09.09,0,0,1,0,.07l-.25.13s0,0,0,0l.09-1a.08.08,0,0,1,0-.07Z"/><path class="cls-3" d="M248.75,29.15s0,0,0,0l-.09,1a.08.08,0,0,1,0,.07l-.25.13s0,0,0,0l.09-1a.1.1,0,0,1,0-.07Z"/><path class="cls-3" d="M247.86,29.54s0,0,0,0l-.08,1a.11.11,0,0,1,0,.07l-.25.12s0,0,0,0l.09-1a.1.1,0,0,1,0-.07Z"/><path class="cls-3" d="M247,29.93s0,0,0,0l-.09,1a.1.1,0,0,1,0,.07l-.25.12a0,0,0,0,1,0,0l.09-1a.09.09,0,0,1,0-.07Z"/><path class="cls-3" d="M246.07,30.33s0,0,0,0l-.09,1a.09.09,0,0,1,0,.07l-.25.12s0,0,0,0l.09-1a.1.1,0,0,1,0-.07Z"/><path class="cls-3" d="M245.17,30.72s0,0,0,0l-.08,1a.1.1,0,0,1,0,.07l-.26.12a0,0,0,0,1,0,0l.09-1a.1.1,0,0,1,.05-.07Z"/><path class="cls-3" d="M244.31,31.09s0,0,0,0l-.09,1a.1.1,0,0,1,0,.07l-.25.12s0,0,0,0l.09-1a.09.09,0,0,1,.05-.07Z"/><path class="cls-3" d="M243.46,31.55s0,0,0,0l-.08,1a.1.1,0,0,1,0,.07l-.25.12s0,0,0,0l.08-1a.11.11,0,0,1,.05-.07Z"/><path class="cls-3" d="M242.61,32a0,0,0,0,1,0,0l-.09,1a.09.09,0,0,1,0,.07l-.25.13s0,0,0,0l.08-1a.12.12,0,0,1,0-.07Z"/><path class="cls-3" d="M239.13,33.48v1a.09.09,0,0,1,0,.07l-.24.15s0,0,0,0v-1a.09.09,0,0,1,0-.07l.24-.13s0,0,0,0"/><path class="cls-4" d="M324,24.94c-.83-.2-7-1.25-7-1.25a4.17,4.17,0,0,0-2.87-3.14,5.08,5.08,0,0,0-3.24.27l-.12-1,.17-.11h.78c.2-.18,0-.47,0-.47h-.37l0-.23,3-2.25L314,15.66a25.08,25.08,0,0,0,4.4-4.14c3.19-3.62,3.06-5.87,2.74-7.07S319.41,3,319.21,2.9c-1-1.71-3.57-2.69-5-2.83-5.72-.59-14.71,3-18,4.4s-27.76,12.22-27.76,12.22c-1.47.15-11,4.74-11,4.74-3.76.22-23.12,1.81-23.12,1.81-.34-.17-7.65-8-9.87-10.12s-2.88-2.32-4.47-1.86a29.29,29.29,0,0,0-4.16,1.83l4.82,11.17c-2.08.25-13.44.9-15.13,1.39s-4.79,1.78-4.79,1.78l8.46,0,0,.29,6.72,0a22.24,22.24,0,0,1-1.71,2.1c-.19.12-.27.71.69.54,2.4-.39,5.86-2.59,5.86-2.59l1.32,0,.88,2.08c-.78.76-.49,1-.39,1.15s1,0,1,0l2.42,5.67s-15.45,2-19.31,2.52a30.6,30.6,0,0,0-6.23,1.15c-1,.34-3.77,1.81-3.77,1.81l25.18-1.39c-.12.86,1.15,1.25,2.08,1.29s9.14.12,9.14.12c1.27.68,3.54.44,4.74.25a50.6,50.6,0,0,1,5.62-.2A67.05,67.05,0,0,0,260,40.15a3.24,3.24,0,0,0,.26,1.65,1.28,1.28,0,0,0,1.6.42,1.46,1.46,0,0,0,.62-.91l.24.46c0,.14.18.32.24.3a1.46,1.46,0,0,0,.25-.23c0,.11.19.23.19.23l.37-.34c0,.25.49.64,1.18.63s1.09-.75,1.16-1.64a1.7,1.7,0,0,0-.46-1.36L266,39a1.15,1.15,0,0,0,2,0,2.09,2.09,0,0,0,.16-1.78l3.31-1.5c-.07,1.68.42,2,.73,2.1a1.26,1.26,0,0,0,.73-.05l-.29,1.16.19.29,1.91-1,.33-1.63.55-.37c.54,1.71,1.6,1.63,1.84,1.58a4.61,4.61,0,0,0,.63-.21l.82,1.61,1.69-1,.13-.33-.8-1.46a2.31,2.31,0,0,0,.8-3,1.31,1.31,0,0,0-1.47-.84l0-.25L282,31.14l1.24,1.2s-.23.23-.27.26a.61.61,0,0,0,.06.91c.46.49,1.63.11,1.63.11l2.68,2.51-.25.41.25.47,1,0,.21.39c-.06,0-.06.21-.06.21l-.26,0,0,.06s-.11,0-.17.16.17.23.17.23l0,1.14a.84.84,0,0,0-.62-.31c-.73-.08-1.29.46-1.38,1.33s.23,2,1.27,2a1.23,1.23,0,0,0,1.22-1l.25.45c-.08.13.15.34.25.24a.54.54,0,0,1,.21-.13c0,.13.24.19.24.19l.36-.33a1.21,1.21,0,0,0,2.23-.41,2,2,0,0,0-.36-2l.39-.44a1.24,1.24,0,0,0,2.2-.26,2.47,2.47,0,0,0-.12-1.82,1.18,1.18,0,0,0-1.55-.57,1.38,1.38,0,0,0-.78,1.11l-.1-.18h-.17l-.36-7.47a2.27,2.27,0,0,0,.6-1c1.06-.13,3.76-.53,3.76-.53l0,.24,1.69-.15c-.08.18-2.23,2.66-2.46,2.88s-.11.44-.06.67.36.5,1.32.31A22.05,22.05,0,0,0,300,30.27a3,3,0,0,0,2.41,3.28,26.54,26.54,0,0,0,4.12-1.61,2,2,0,0,0,1,.18,19.08,19.08,0,0,0,7.14-3,9.77,9.77,0,0,0,1.64-1.55l1.21-.11,0-.18a30.74,30.74,0,0,0,4,0c2.75-.69,3.63-1.27,3.68-1.55s-.44-.52-1.27-.72m-5.65-23a6.14,6.14,0,0,1,.64.8c-.07,0-.62-.15-.62-.15a2,2,0,0,0-.62-.73s.39-.15.6.08m-.91-.1a2.35,2.35,0,0,1,.67.77,15.72,15.72,0,0,0-1.87.2,7.56,7.56,0,0,1-1-.65s1.74-.26,2.25-.31m-3,.15c.08.08,1.48.89,1.48.89a11.61,11.61,0,0,0-1.45.41,5.31,5.31,0,0,1-1.16.23,3,3,0,0,1,.41-1.37c.08,0,.71-.16.71-.16m-2.69,1.52.88-1.08s.47-.15.8-.23a4.34,4.34,0,0,0-.37,1.37l-1.3.34Zm-72.64,31a.09.09,0,0,1,0,.07l-.24.15s0,0,0,0v-1a.09.09,0,0,1,0-.07l.24-.13s0,0,0,0ZM242.57,33a.09.09,0,0,1,0,.07l-.25.13s0,0,0,0l.09-1a.11.11,0,0,1,0-.07l.25-.11a0,0,0,0,1,0,0Zm.85-.46a.1.1,0,0,1,0,.07l-.25.12s0,0,0,0l.08-1a.1.1,0,0,1,.05-.07l.25-.11s0,0,0,0Zm.85-.46a.09.09,0,0,1,0,.07l-.26.13s0,0,0,0l.08-1a.09.09,0,0,1,.05-.07l.25-.11s0,0,0,0Zm.87-.37a.1.1,0,0,1,0,.07l-.26.12a0,0,0,0,1,0,0l.09-1a.1.1,0,0,1,.05-.07l.25-.11s0,0,0,0Zm.89-.39a.09.09,0,0,1,0,.07l-.25.12s0,0,0,0l.09-1a.1.1,0,0,1,0-.07l.25-.11s0,0,0,0Zm.9-.39a.11.11,0,0,1,0,.07l-.25.12a0,0,0,0,1,0,0l.09-1a.09.09,0,0,1,0-.07l.25-.11s0,0,0,0Zm.9-.39a.11.11,0,0,1,0,.07l-.25.12s0,0,0,0l.09-1a.09.09,0,0,1,0-.07l.25-.11s0,0,0,0Zm.89-.39a.08.08,0,0,1,0,.07l-.25.13s0,0,0,0l.08-1a.1.1,0,0,1,0-.07l.25-.11s0,0,0,0Zm.9-.39a.09.09,0,0,1,0,.07l-.25.13s0,0,0,0l.09-1a.08.08,0,0,1,0-.07l.25-.11s0,0,0,0Zm.9-.39a.1.1,0,0,1,0,.07l-.25.12s0,0,0,0l.08-1a.09.09,0,0,1,0-.07l.25-.11s0,0,0,0Zm12.35,10.79c-.28,0-.33.13-.33.13s-.13-.47-.13-.47l.37,0,.59-.23Zm2.05-1.06,0-.1.19-.25.08.08Zm6.83-19a.09.09,0,0,1-.05.07l-.29.14s-.05,0,0,0l0-1a.09.09,0,0,1,.05-.07l.29-.12s.05,0,.05,0Zm1-.43a.1.1,0,0,1-.06.07l-.29.14s0,0,0,0l0-1a.09.09,0,0,1,.05-.07l.29-.12s.05,0,0,0Zm1-.42a.1.1,0,0,1-.05.07l-.3.14s0,0,0,0l0-1a.09.09,0,0,1,.05-.07l.29-.12s0,0,0,0Zm1-.46a.1.1,0,0,1-.05.07l-.3.13s-.05,0,0,0l0-1a.09.09,0,0,1,.05-.07l.29-.12s.05,0,.05,0Zm1-.46a.1.1,0,0,1-.05.08l-.29.13s-.05,0-.05,0l0-1a.08.08,0,0,1,.05-.07l.29-.12s0,0,0,0Zm1-.46a.09.09,0,0,1-.05.07l-.29.14s0,0,0,0l0-1a.09.09,0,0,1,.05-.07l.29-.12s.05,0,.05,0Zm1-.45a.09.09,0,0,1-.05.07l-.29.14s-.05,0-.05,0l0-1a.09.09,0,0,1,.05-.07l.29-.12s.05,0,.05,0Zm1-.46a.1.1,0,0,1,0,.08l-.3.14s0,0,0,0l0-1a.09.09,0,0,1,.06-.07l.29-.12s0,0,0,0Zm1-.46a.09.09,0,0,1-.05.07l-.29.14s-.05,0,0,0l0-1a.09.09,0,0,1,.05-.07l.3-.12s.05,0,0,0Zm1-.34a.09.09,0,0,1-.05.07l-.29.14s0,0,0,0l0-1a.09.09,0,0,1,.06-.07l.29-.12s0,0,0,0Zm1-.44a.1.1,0,0,1-.05.07l-.29.14s0,0,0,0l0-1a.09.09,0,0,1,.05-.07l.29-.12s.05,0,.05,0Zm2.39-2a.09.09,0,0,1,.05-.07l.29-.12s.05,0,.05,0l0,1a.1.1,0,0,1-.05.07l-.3.14s-.05,0,0,0Zm-1.41,1.53a.1.1,0,0,1-.05.07l-.3.14s0,0,0,0l0-1a.1.1,0,0,1,.06-.07l.29-.12a0,0,0,0,1,0,0Zm1.23,16.58-1.17-1.08,1.42-.68s-.07.34,0,.44-.22.22-.22.29a.34.34,0,0,0,.46.32l.15-.27.27,0Zm2.75-19.27a.1.1,0,0,1,.05-.07l.29-.12s.05,0,.05,0l0,1a.08.08,0,0,1-.05.07l-.29.14s-.05,0,0,0Zm-.86.34a.09.09,0,0,1,.05-.07l.29-.12s.05,0,.05,0l0,1a.1.1,0,0,1-.05.07l-.29.14s-.05,0-.05,0Zm-.25,20.41.63-.27c0,.32.59.37.59.37l1.08,2Zm1.83-.59c.1-.07,0-.34,0-.34.19-.07.9-.49.9-.49l.83,2.79,0,.1.22.69,0,.44a.39.39,0,0,0-.39-.27ZM289,40.12c-.28,0-.31.09-.31.09a2,2,0,0,0-.15-.43h.4l.43-.28h.12ZM291.18,39h-.11l.2-.24.06.07Zm1.14-28.31a.1.1,0,0,1-.06.07l-.31.11s0,0,0,0l.12-1a.08.08,0,0,1,.06-.06l.3-.1s.05,0,0,0Zm1-.4a.08.08,0,0,1-.06.06l-.31.11s0,0,0,0l.12-1a.09.09,0,0,1,.06-.07l.3-.1s0,0,0,0Zm1-.41a.08.08,0,0,1-.06.07l-.3.11s-.05,0,0,0L294,9a.08.08,0,0,1,.06-.07l.3-.1s.05,0,0,0Zm1-.41a.09.09,0,0,1-.06.06l-.31.11s0,0,0,0l.12-1a.09.09,0,0,1,.06-.07l.3-.1s.05,0,0,0Zm1-.41a.08.08,0,0,1-.06.07l-.3.11a0,0,0,0,1,0,0l.12-1a.11.11,0,0,1,.06-.07l.3-.1s0,0,0,0Zm1-.41a.09.09,0,0,1-.06.07l-.3.11s-.05,0-.05,0l.12-1a.09.09,0,0,1,.06-.06l.3-.1s0,0,0,0Zm1-.41a.1.1,0,0,1-.06.07l-.31.11s0,0,0,0l.12-1a.09.09,0,0,1,.06-.07l.3-.1s0,0,0,0Zm1-.41a.1.1,0,0,1-.06.07l-.31.11s0,0,0,0L299,7A.09.09,0,0,1,299,6.9l.3-.1s0,0,0,0Zm1-.41a.11.11,0,0,1-.06.06l-.3.11s-.05,0,0,0l.12-1A.08.08,0,0,1,300,6.5l.3-.1s0,0,0,0Zm9.59,13.35a12.92,12.92,0,0,0-4.3,1s-2.25-.41-2.39-.39l5.31-2.49s.23,1,.77,1.17l.8,0,.1.44a2.87,2.87,0,0,0-.28.23"/><path class="cls-3" d="M268.83,20.36l-.25.13a.09.09,0,0,0,0,.07v.15l.33,0v-.3a0,0,0,0,0,0,0"/><path class="cls-3" d="M269.76,20l-.29.13a.09.09,0,0,0-.05.07v.47l.39,0,0-.62s0,0-.05,0"/><path class="cls-3" d="M270.75,20.57l0-1s0,0,0,0l-.3.12a.09.09,0,0,0-.05.07l0,.83Z"/><path d="M15.9,112.45c-.09-1.72.09-3.36,0-5.44-.28-5.25-1-10.84-1.32-16.18-.34-6.43-.49-12.5-.82-18.66-.11-2-.77-4.22-2.76-4-1.71.18-3.54,0-5.26.1-1.9.1-3-.93-3-2.38a20.72,20.72,0,0,1-.18-3.35c.1-1.55.78-2.4,2-2.47,3.35-.09,5.51-.57,8.41-.63,3.35-.09,6.77-.72,10.14-.54a53,53,0,0,0,7.6-.41c1.35-.16,1.87,1.08,2,2.07.29,2-.31,2.74-.4,4.38,0,1.18-1.08,1.78-2.26,1.85-1.81.1-3.72,0-5.52.29a2,2,0,0,0-2,2.1c.19,3.53.71,6.59.45,10.14-.33,4,1.2,10.65,1.16,16.64-.06,3.91.7,8,.62,11.68-.12,4.54.82,8.49.67,12.58a2.38,2.38,0,0,1-2.23,2.39,46.4,46.4,0,0,1-4.82-.11,2,2,0,0,1-1.74-1.9c-.08-1.45-.65-7-.71-8.13m1.8,6.44a1.47,1.47,0,0,0,1.39-1.07c.15-.55-.33-1.16-.68-.78-.77.86-1.24.61-1.2,1.42,0,.36,0,.45.48.43"/><path d="M42.13,102.25c-.15-1.17,0-2.27-.17-4.89-.11-2.08-.6-6.14-.71-11.67,0-4.26-1-8.39-.75-12.4,0-.82-.47-5.42-.5-5.87-.13-2.44,0-4.72-.08-6.62a2.82,2.82,0,0,1,2.66-3,17.84,17.84,0,0,1,3.81-.11c1.91,0,2.77.85,2.86,2.57.11,3.71.4,7.42.59,11.13a26.47,26.47,0,0,1,0,4.08c-.08,3.55,1.07,11.56,1.07,18.37a85.53,85.53,0,0,0,.89,13.3,9.11,9.11,0,0,1,.06,2.72c-.15,2.28.53,4.87.42,7.78-.07,2.09-.74,3.13-3,3.25-1,.05-2.1-.16-3.09,0-1.8.28-2.85-.67-3.15-2.92-.55-3.6-.17-10-.93-15.75m6.82,7c.63,0,.8-.31.77-.86a.87.87,0,0,0-1-.94.81.81,0,0,0-.77.86.9.9,0,0,0,1,.94"/><path d="M60.69,92.81a87.21,87.21,0,0,1-.28-12,32.09,32.09,0,0,0-.79-4.59c-.29-5.52-.06-9.62,1-12.67a18.94,18.94,0,0,1,1.5-2.53c2-3.29,7.06-5.55,11-5.76,7.87-.42,12.74,5.77,14.15,10a23.78,23.78,0,0,1,1.27,8.46,2.22,2.22,0,0,1-2.23,2.48c-1.26.16-2.41.85-3.67.92-1.9.1-2.68-.95-2.75-2.21a30.17,30.17,0,0,0-.58-5.69c-1-4-3.36-5.18-5.54-5.06-7,.37-4.94,9.52-4.56,16.49.11,2.08.4,4.06.33,6.16-.2,6.46,1,12.83,1.16,18.36,0,4.27,2.63,6.76,5.71,6.6a5.6,5.6,0,0,0,5.12-6.08c-.12-2.26,0-4.63-.1-6.9-.1-1.81.68-2.58,1.76-2.64.72,0,6.48-1.07,6.64,1.91L90,102.5a25.6,25.6,0,0,1-.49,7.74c-1.42,7.43-6.66,9.61-12.72,9.94a15.24,15.24,0,0,1-7.62-1.68c-1.68-.82-3.31-.82-4.53-3.3s-2.71-4.94-3.18-8.54c-.73-5.23-.28-8.61-.74-13.85M80.1,114.65c-.63,0-2.35.22-2.32.76s.22.8.68.78c.81,0,2.16-.3,2.12-1.11,0-.36,0-.45-.48-.43"/><path d="M95.18,94.51c-.5-11-1.32-14.45-1.27-18.72,0-3.27-.61-11.41-.63-11.86,0-.81,0-5.9-.09-6.71-.05-1,.42-2.38,3.13-2.53.81,0,1.92.17,2.73.13,2.9-.15,3.49.81,3.56,2.17.09,1.63-.34,2.1-.29,3.1.12,2.17.73,3.5.85,5.76.27,5,.18,6.8.63,11.86,0,.81.25,1.35,1.07,1.3,1-.05,1.64-1.63,2-2.28L111,66.88c1.46-3.35,2.43-7.12,4.13-11.11a3.07,3.07,0,0,1,3.06-2.25c.36,0,3.09.11,3.73.07,1.09-.06,2.27.06,2.35,1.42a6.2,6.2,0,0,1-.48,2.93c-1.36,3.43-3,6.43-4.28,10-1.18,3.33-2.74,6.41-4,9.56-.8,2-2,4.56-.39,8,.72,1.5,1.1,3.57,2.48,5.68s1.87,4.44,2.79,6.3c2.35,4.87,4.39,9.12,6.57,14.18.83,2,1.25,4.65-1.92,4.82-1.09.06-3,.8-4.88.35-2.21-.61-2.52-4.77-3.24-6.27s-2.15-2.88-3.16-4.82c-1.72-3.27-3-7-4.56-10.56a2,2,0,0,0-1.71-1.36c-1.9.1-2.87,4-2.79,5.6a50.66,50.66,0,0,1,.34,6.43,44,44,0,0,0-.1,5l.22,4.16c.09,1.72-.94,2.77-2.93,2.88-.91,0-1.79.37-2.7.42a2.84,2.84,0,0,1-3.25-3c.12-6.27-.78-12.94-1.11-20.82m.65-25.27a.65.65,0,0,0,.69-.76c0-.27-.12-.63-.58-.6a.57.57,0,0,0-.6.67c0,.45.22.72.49.7"/><path d="M132.63,109.21c-.2-3.71-.21-7.34-.39-10.78-.86-16-.48-17.5-.5-17.95-.15-2.72-.65-5.41-.84-8.85,0-.63-.59-6-.63-6.68-.08-1.45-.07-3-.17-5-.07-1.27-.23-2.53-.29-3.71A2.88,2.88,0,0,1,132.45,53c1.54-.08,4.05-.58,5.23-.64.81,0,3.64.08,4.09.05,4-.21,7.14-.65,11.13-.59,1.82,0,2.4.69,2.59,2.58a23.74,23.74,0,0,1,.53,3.15c.05,1-.23,2.55-1.67,2.72-6.31.79-8,.43-11.84,1-3.24.45-3.3,2.72-3.18,5.07.08,1.45.44,3.06.5,4.33.11,2.08.31,4.16.33,6.25,0,2.45.69,2.69,5.39,2.44.9,0,3,0,3.81,0s1.53-.26,2.25-.3c2.81-.15,2.51,2.77,2.57,3.86.15,2.9.61,4.6-2.11,4.74-1.09.06-2.54,0-3.71.11a35,35,0,0,1-5.34.29c-1.18,0-1.78.64-1.73,1.64.12,2.17-.13,4.27.08,6.62.42,4.52.54,6.6.62,8.23a2.63,2.63,0,0,0,2.77,2.48c1.8-.19,3.54,0,5.34-.29a44,44,0,0,1,4.89-.26c1.81-.1,3.64.26,3.76,2.43.07,1.27-.4,2.66-.33,4.1a2,2,0,0,1-2,2.19c-2.71.32-5.44,0-8,.33-3.51.46-7.15.47-10.68.66-2.35.13-4.75-.66-4.88-3-.1-1.81-.21-2.26-.3-4m4.73,3.56c-.63,0-.87.68-1.21,1.15s0,.72.49.7a1.22,1.22,0,0,0,1.19-1.43c0-.36,0-.45-.48-.43"/><path d="M172.06,104.75c-.14-2.62-.16-4.8-.32-7.61-.07-1.27.59-2.48.52-3.93,0-.63-.68-2.51-.73-3.41-.22-4.07-.72-8.4-.9-11.75-.1-1.81.31-2.74.23-4.19-.34-6.43-.74-8.68-.8-9.85s.05-4.09-2.21-4c-6.06.32-8,.7-8.07-1.57-.07-1.27-.5-2.51-.56-3.78-.2-3.8,1.38-3.16,8.89-3.56,1.09-.06,8.5-.54,9.77-.61,2.8-.15,1.84.45,4.46.31,1.54-.08,1.88-.46,4.78-.62,1.63-.09,2.12.61,2.3,3.87.25,4.62-1.21,4.51-9.18,4.94-1.9.1-1.28,5-1.14,7.6.07,1.27.22,2.44.79,13,.1,1.81-.31,2.65-.21,4.55.06,1.18.66,2.14.86,4.13.74,7.13.87,14.57,1.16,21.72.15,2.72-.52,3.84-2.24,3.93-1.27.07-1.89.28-3.7.38-2.08.11-2.78-1-2.87-2.75,0-.54-.75-5.59-.82-6.86m7-15.26c-.45,0-.86,1-.85,1.13,0,.45.13.72.49.7.72,0,.78-.77.74-1.49,0-.27,0-.36-.38-.34"/><path d="M216.05,102.4c-.14-2.62-.17-4.8-.32-7.61-.07-1.27.59-2.48.52-3.93,0-.63-.68-2.51-.73-3.41-.22-4.07-.72-8.4-.9-11.75-.1-1.81.31-2.74.23-4.19-.34-6.43-.73-8.68-.8-9.85s.05-4.09-2.21-4c-6.07.32-8,.7-8.07-1.57-.07-1.27-.5-2.52-.56-3.78-.2-3.8,1.37-3.16,8.89-3.56,1.09-.06,8.5-.54,9.77-.61,2.81-.15,1.84.45,4.46.31,1.54-.08,1.88-.46,4.78-.62,1.63-.09,2.12.61,2.29,3.87.25,4.62-1.21,4.51-9.18,4.94-1.9.1-1.28,5-1.14,7.6.07,1.27.22,2.44.79,13,.1,1.81-.31,2.65-.21,4.55.06,1.17.66,2.14.86,4.13.74,7.13.87,14.57,1.16,21.72.15,2.72-.52,3.84-2.24,3.93-1.27.07-1.89.28-3.7.38-2.08.11-2.78-1-2.87-2.75,0-.54-.75-5.59-.82-6.85m7-15.26c-.45,0-.86,1-.85,1.14,0,.45.13.72.49.7.72,0,.77-.77.74-1.49,0-.27,0-.36-.38-.34"/><path d="M239.08,91.73c-.07-1.27,0-2.18-.08-3.26s-.58-2.42-.71-4.86-.06-8-.27-11.88c-.07-1.27-.23-2.62-.39-3.88-.54-5-.65-8.86,1.44-13.87,2.42-5.67,6.12-7.77,11.37-8.05,2-.11,7.83.49,8.88,3.16a3.21,3.21,0,0,0,2,2.16c2.15,1.16,2.3,2.24,3.27,5.18A32.43,32.43,0,0,1,266.4,66c.18,3.35.15,4.53.3,7.25.2,3.71.75,10.58,1,15.74.29,5.52.57,12.31-3.25,17.33-2.29,3-7.85,4.23-10.57,4.38-7.24.39-12.29-4.15-13.8-10.34a45.86,45.86,0,0,1-1-8.66m2.7,9.84a.51.51,0,0,0,.42-.57.78.78,0,0,0-.76-.69c-.27,0-.26.19-.25.47,0,.54.13.81.59.79m13.83.62c1.45-.08,3.37-3.08,3.47-4.63a43.68,43.68,0,0,0-.19-6.89c-.16-1.26.51-2.3.46-3.38s-.66-2.14-.82-3.5c-.19-1.81-1.08-11.65-1.18-13.64-.12-2.26.09-5.18,0-7.53-.17-3.17-1.42-7.82-5.85-7.59-2.81.15-4.41,2.51-4.45,5-.07,5.45,1.1,12.11.8,16.66-.22,2.73.22,5.89.43,9.78.05,1,.38,2.07.44,3.06.14,2.63-.48,4.57.15,8,.63,3.23,3.25,4.82,6.78,4.63"/><path d="M287.26,91.33c-.05-1-.19-1.9-.24-2.8-.09-1.72.09-3.36,0-4.9,0-.36-.46-5.15-.67-9-.08-1.45-.06-2.9-.06-4.45,0-3.54-.67-7.5-.71-11.58,0-3.27-.06-6.26-.23-9.34-.13-2.44.6-4.12,4.74-4.7,3.24-.45,6.8-.18,10.32-.55a20.27,20.27,0,0,1,5.85.78,13.21,13.21,0,0,1,8.31,11.08c.17,3.08.86,5.95.48,9-.39,2.83-.79,5.49-2.29,8-.66,1.22-2,2.56-2,3.65s1.25,1.39,2.63,3.4c1.77,2.54,2.58,7.58,2.74,10.48.19,3.53.41,5.88.58,9.14l.14,2.71c.06,1.09,1.3,2.2.82,3.5s-4.38,1.23-5.56,1.29c-3.89.21-4.12-2.41-4.25-4.76-.75-14-1-21-8-20.63-2.26.12-3.62.29-3.51,2.27.23,4.25-.19,8.27.39,12.42a76,76,0,0,1,.72,8.4c.13,2.53-1.47,3.16-5.18,3.36-2.08.11-4-.6-4.31-2.49-.61-4.69-.33-9.51-.76-14.21m.43-19.18c.63,0,1.18-.06,1.13-1,0-.45-.59-.79-1.22-.75s-.52.39-.5.85c0,.9,0,.9.59.88m12,2.17a6.53,6.53,0,0,0,2.84-1.15c3.85-2.75,3.27-5.08,3.41-9.26,0-.36.36-1.83.32-2.47-.15-2.9-.87-9.39-5.84-9.13-4.52.24-5.5.66-5.52,3.74,0,2.45-.28,4.92.22,7.43.51,2.7.29,5.43.62,8.14.19,1.9,1.15,2.84,4,2.69"/><path d="M322.47,89.36c-.05-1,.26-1.92.21-2.92-.07-1.27-.48-2.24-.86-9.39-.41-7.69-.21-9.06-.27-10.24-.17-3.26-.62-6.5-.79-9.76C320.28,48.45,324.4,42.33,331,42c2.17-.12,2.86-.88,5-1a11.17,11.17,0,0,1,7.64,2c4.27,3.4,6.21,7.48,6.2,12.38,0,5.35,1,10.66.94,15.93-.08,7,1.1,12,1,20.82a17,17,0,0,1-4.16,10.39c-2.41,2.49-6.62,3.62-10,3.8-6.06.32-13.43-3.37-14.54-10.39-.4-2.43-.64-5.23-.71-6.5m8.78-.56c.25,4.71,1.13,9.2,6.2,8.93,3.71-.2,5.17-3.45,5-6.62-.23-4.35-.82-8.58-1.05-12.93a6.74,6.74,0,0,1,.15-2.37c.77-2.49.06-3.91,0-5.9-.38-7.15-.55-12-.61-13.13-.19-3.62-1.78-7.8-6-7.57-3.8.2-5.6,4-5.41,7.55.23,4.25.55,8.59.79,13a58.17,58.17,0,0,1,.61,6.41c.26,4.89-.5,5.84-.44,7,0,2.36.74,3.59.84,5.58M343.5,78.62a1.1,1.1,0,0,0,.68-.94.92.92,0,0,0-.87-1c-.46-.07-.81,0-.77.95s.42,1.16,1,.95"/><path d="M357,84.16a14.87,14.87,0,0,0,.44-2c-.08-1.45-.59-2.51-.75-3.77-.28-1.8-.38-3.7-.48-5.51l-.32-6.06c-.09-1.63.16-3.73.11-4.82-.23-4.26-.44-6.51-.31-7.52.94-6.13,2-11.18,8.26-13.69A13.16,13.16,0,0,1,368,39.54c12.4-.66,16,7.77,16.49,16.46.14,2.63.29,5.52-3.05,5.7a7.66,7.66,0,0,1-3.55-.17,2.56,2.56,0,0,1-2.12-2.34c-.14-.9-.64-1.69-.68-2.41-.18-3.44-.53-8.23-5.24-8-6.7.36-4.48,11.23-4.19,16.84.09,1.63.35,3.25.44,4.79s0,2.54,0,4c.29,5.52.52,13.23,1,16.47a5.28,5.28,0,0,0,5.5,4.34c2.9-.16,4.39-2.69,4.25-5.31-.1-1.9-.37-3.52-.46-5.15-.21-3.89.16-5.46,4.06-5.66,1.9-.1,4.43-.33,5,1.91a31.68,31.68,0,0,1,.59,5.87c.32,6.07-1.3,14.69-8.65,16.53a26,26,0,0,1-6.11,1.14,18.06,18.06,0,0,1-7.65-2.13,11.64,11.64,0,0,1-5.6-8.05c-.62-3.05-1.14-6-1.19-7a12.89,12.89,0,0,1,.1-3.18M361.57,72c.45,0,.62-.3.59-.85s-.87-1-1.5-.92c-.45,0-.45.11-.43.48A1.22,1.22,0,0,0,361.57,72"/><path d="M392.74,93.05c-.06-1.18.34-2.2.23-4.28s-1-8-1.13-11c-.08-1.45-.11-3.81-.19-5.35,0-.91.5-2.57.4-4.47s-.72-3.23-1-5.57c-.44-3.06.13-6-.64-10.31-.4-2.34-.34-8.06-.43-9.78a2.79,2.79,0,0,1,2-3.19,16.46,16.46,0,0,1,3.7-.38c1.54-.08,3,.74,3.11,2.1a16.18,16.18,0,0,1,.36,3.25,16.45,16.45,0,0,0,.26,4.8,60.77,60.77,0,0,1,.7,7.95,23.76,23.76,0,0,0,.27,5.07c.24,1.08.63,1.69,1.27,1.66.81,0,1.48-1.26,1.71-2,1.41-4.25,1.8-5.45,2.23-5.93.26-.29.61-.49.78-.68.43-.48.1-1.55,1-3.5.24-.56,1.23-2.42,2.1-4.83.48-1.2,2.08-5.19,2.92-6.6a4.26,4.26,0,0,1,2.43-2.22c1.51-.53,3.35-.09,4.89-.17a1.54,1.54,0,0,1,1.72,1.63c.08,1.54-1.13,4.33-1.62,5.44l-6.33,14c-.41.84-1.31,4.34-1.87,5.82-1.28,3.25.67,7.41,2.09,10.24,2.23,4.42,4.33,8,5.5,11.24,1.5,4.28,3.06,6.37,3.89,8.32.94,2.22,1.46,3.55,1.33,4.47-.23,2.55-3.52,2.09-6.23,2.24-3,.16-3.66-2.16-4.6-4.56-.53-1.42-1.42-2.74-2-4.25-1.58-4.09-3.66-7.34-5.17-11.89-.33-1.16-.94-2.4-1.94-2.35-1.45.08-2.93,2.88-3,4.16-.08,1.91-.06,3.91,0,5.45.05,1,.52,4.6.68,7.59a29.6,29.6,0,0,1,.17,4.89c-.31,2.65-4.41,2.41-5.77,2.49s-3.21-.56-3.35-3.27c-.07-1.27-.28-3.53-.42-6.24m4.44-.24c.36,0,.54-.12.52-.48a.48.48,0,0,0-.57-.52.43.43,0,0,0-.43.48c0,.45.21.53.48.52"/></g></g></svg>