<svg xmlns="http://www.w3.org/2000/svg" xmlns:xlink="http://www.w3.org/1999/xlink" viewBox="0 0 849.68 902"><defs><style>.cls-1{mask:url(#mask);filter:url(#luminosity-noclip-2);}.cls-2{mix-blend-mode:multiply;fill:url(#radial-gradient);}.cls-3{fill:none;}.cls-4{fill:#f1f2f2;}.cls-5{isolation:isolate;}.cls-11,.cls-6{opacity:0.8;}.cls-7{clip-path:url(#clip-path);}.cls-8{clip-path:url(#clip-path-2);}.cls-9{fill:#d1d3d4;}.cls-10{mask:url(#mask-2);}.cls-11{mix-blend-mode:overlay;fill:url(#radial-gradient-2);}.cls-12{filter:url(#luminosity-noclip);}</style><filter id="luminosity-noclip" x="47.28" y="-8239" width="755.11" height="32766" filterUnits="userSpaceOnUse" color-interpolation-filters="sRGB"><feFlood flood-color="#fff" result="bg"/><feBlend in="SourceGraphic" in2="bg"/></filter><mask id="mask" x="47.28" y="-8239" width="755.11" height="32766" maskUnits="userSpaceOnUse"><g class="cls-12"/></mask><radialGradient id="radial-gradient" cx="423.75" cy="451.14" r="401.31" gradientTransform="translate(26.17) scale(0.94 1)" gradientUnits="userSpaceOnUse"><stop offset="0.16" stop-color="#fff"/><stop offset="0.48" stop-color="#999"/><stop offset="0.84" stop-color="#2c2c2c"/><stop offset="1"/></radialGradient><clipPath id="clip-path"><rect class="cls-3" x="285.7" y="180" width="318" height="201"/></clipPath><clipPath id="clip-path-2"><rect class="cls-4" x="168.7" y="178" width="513" height="546"/></clipPath><filter id="luminosity-noclip-2" x="47.28" y="49.84" width="755.11" height="802.61" filterUnits="userSpaceOnUse" color-interpolation-filters="sRGB"><feFlood flood-color="#fff" result="bg"/><feBlend in="SourceGraphic" in2="bg"/></filter><mask id="mask-2" x="47.28" y="49.84" width="755.11" height="802.61" maskUnits="userSpaceOnUse"><g class="cls-1"><ellipse class="cls-2" cx="424.84" cy="451.14" rx="377.55" ry="401.3"/></g></mask><radialGradient id="radial-gradient-2" cx="423.75" cy="451.14" r="401.31" gradientTransform="translate(26.17) scale(0.94 1)" gradientUnits="userSpaceOnUse"><stop offset="0.16" stop-color="#fff"/><stop offset="1" stop-color="#fff"/></radialGradient></defs><title>rays_svg</title><g class="cls-5"><g id="Layer_2" data-name="Layer 2"><g id="Layer_1-2" data-name="Layer 1"><g class="cls-6"><g class="cls-7"><rect class="cls-4" x="168.7" y="178" width="513" height="546"/><g class="cls-8"><polygon class="cls-9" points="399.05 902 424.84 450.83 450.63 902 399.05 902"/><polygon class="cls-9" points="487.87 898.15 424.84 451.14 538.32 886.75 487.87 898.15"/><polygon class="cls-9" points="573.93 874.46 424.84 451.14 621.05 852.15 573.93 874.46"/><polygon class="cls-9" points="653.47 832.26 424.84 451.14 695.2 800.03 653.47 832.26"/><polygon class="cls-9" points="723.03 773.4 424.84 451.14 757.54 732.66 723.03 773.4"/><polygon class="cls-9" points="779.55 700.47 424.84 451.14 805.34 652.99 779.55 700.47"/><polygon class="cls-9" points="820.56 616.63 424.84 451.14 836.5 564.49 820.56 616.63"/><polygon class="cls-9" points="844.29 525.56 424.84 451.14 849.68 471.04 844.29 525.56"/><polygon class="cls-9" points="849.68 431.24 424.84 451.14 844.29 376.71 849.68 431.24"/><polygon class="cls-9" points="836.5 337.79 424.84 451.14 820.56 285.65 836.5 337.79"/><polygon class="cls-9" points="805.34 249.3 424.84 451.14 779.55 201.82 805.34 249.3"/><polygon class="cls-9" points="757.54 169.62 424.84 451.14 723.03 128.88 757.54 169.62"/><polygon class="cls-9" points="695.2 102.25 424.84 451.14 653.47 70.03 695.2 102.25"/><polygon class="cls-9" points="621.05 50.13 424.84 451.14 573.93 27.83 621.05 50.13"/><polygon class="cls-9" points="538.32 15.53 424.84 451.14 487.87 4.13 538.32 15.53"/><polygon class="cls-9" points="450.63 0 424.84 451.17 399.05 0 450.63 0"/><polygon class="cls-9" points="361.81 4.13 424.84 451.14 311.36 15.53 361.81 4.13"/><polygon class="cls-9" points="275.75 27.83 424.84 451.14 228.63 50.13 275.75 27.83"/><polygon class="cls-9" points="196.21 70.03 424.84 451.14 154.48 102.25 196.21 70.03"/><polygon class="cls-9" points="126.65 128.88 424.84 451.14 92.14 169.62 126.65 128.88"/><polygon class="cls-9" points="70.13 201.82 424.84 451.14 44.34 249.3 70.13 201.82"/><polygon class="cls-9" points="29.11 285.65 424.84 451.14 13.18 337.79 29.11 285.65"/><polygon class="cls-9" points="5.39 376.71 424.84 451.14 0 431.24 5.39 376.71"/><polygon class="cls-9" points="0 471.04 424.84 451.14 5.39 525.56 0 471.04"/><polygon class="cls-9" points="13.18 564.49 424.84 451.14 29.11 616.63 13.18 564.49"/><polygon class="cls-9" points="44.34 652.99 424.84 451.14 70.13 700.47 44.34 652.99"/><polygon class="cls-9" points="92.14 732.66 424.84 451.14 126.65 773.4 92.14 732.66"/><polygon class="cls-9" points="154.48 800.03 424.84 451.14 196.21 832.26 154.48 800.03"/><polygon class="cls-9" points="228.63 852.15 424.84 451.14 275.75 874.46 228.63 852.15"/><polygon class="cls-9" points="311.36 886.75 424.84 451.14 361.81 898.15 311.36 886.75"/><g class="cls-10"><ellipse class="cls-11" cx="424.84" cy="451.14" rx="377.55" ry="401.3"/></g></g></g></g></g></g></g></svg>